<svg width="18" height="18" viewBox="0 0 18 18" fill="none" xmlns="http://www.w3.org/2000/svg">
<path d="M9 13.5L5.57437 8.6625C5.01366 8.00048 4.65257 7.19277 4.53316 6.33346C4.41375 5.47415 4.54093 4.5986 4.89988 3.80877C5.25884 3.01895 5.8348 2.34736 6.5607 1.87222C7.28659 1.39708 8.13253 1.13795 9 1.125C10.2025 1.13688 11.3512 1.62483 12.1947 2.48198C13.0381 3.33913 13.5075 4.49561 13.5 5.69812C13.5005 6.74715 13.1433 7.765 12.4875 8.58375L9 13.5ZM9 2.25C8.09542 2.26039 7.23193 2.62934 6.59914 3.27583C5.96636 3.92233 5.616 4.79353 5.625 5.69812C5.62877 6.52378 5.92581 7.32122 6.46312 7.94812L9 11.5425L11.6044 7.875C12.0994 7.25706 12.371 6.4899 12.375 5.69812C12.384 4.79353 12.0336 3.92233 11.4009 3.27583C10.7681 2.62934 9.90458 2.26039 9 2.25Z" fill="#727272"/>
<path d="M9 6.1875C9.62132 6.1875 10.125 5.68382 10.125 5.0625C10.125 4.44118 9.62132 3.9375 9 3.9375C8.37868 3.9375 7.875 4.44118 7.875 5.0625C7.875 5.68382 8.37868 6.1875 9 6.1875Z" fill="#727272"/>
<path d="M15.75 6.75H14.625V7.875H15.75V15.75H2.25V7.875H3.375V6.75H2.25C1.95163 6.75 1.66548 6.86853 1.4545 7.07951C1.24353 7.29048 1.125 7.57663 1.125 7.875V15.75C1.125 16.0484 1.24353 16.3345 1.4545 16.5455C1.66548 16.7565 1.95163 16.875 2.25 16.875H15.75C16.0484 16.875 16.3345 16.7565 16.5455 16.5455C16.7565 16.3345 16.875 16.0484 16.875 15.75V7.875C16.875 7.57663 16.7565 7.29048 16.5455 7.07951C16.3345 6.86853 16.0484 6.75 15.75 6.75Z" fill="#727272"/>
</svg>
