<svg width="20" height="20" viewBox="0 0 20 20" fill="none" xmlns="http://www.w3.org/2000/svg">
<path d="M10.0001 19.3337V8.66699C10.0001 7.95975 10.281 7.28147 10.7811 6.78137C11.2812 6.28128 11.9595 6.00033 12.6667 6.00033H13.3334M6.66672 11.3337H13.3334M10.0001 19.3337C8.77438 19.3337 7.56071 19.0922 6.42834 18.6232C5.29597 18.1542 4.26707 17.4667 3.40039 16.6C2.53371 15.7333 1.84622 14.7044 1.37718 13.572C0.908131 12.4397 0.666718 11.226 0.666718 10.0003C0.666718 8.77465 0.908131 7.56099 1.37718 6.42861C1.84622 5.29624 2.53371 4.26734 3.40039 3.40066C4.26707 2.53398 5.29597 1.84649 6.42834 1.37745C7.56071 0.908406 8.77438 0.666992 10.0001 0.666992C12.4754 0.666992 14.8494 1.65032 16.5997 3.40066C18.3501 5.151 19.3334 7.52497 19.3334 10.0003C19.3334 12.4757 18.3501 14.8496 16.5997 16.6C14.8494 18.3503 12.4754 19.3337 10.0001 19.3337Z" stroke="#727272" stroke-width="1.15"/>
</svg>
