<svg width="20" height="20" viewBox="0 0 20 20" fill="none" xmlns="http://www.w3.org/2000/svg">
<path d="M14.6668 4.66699H16.0001M6.00014 0.666992H14.0001C15.4146 0.666992 16.7712 1.2289 17.7714 2.22909C18.7716 3.22928 19.3335 4.58584 19.3335 6.00033V14.0003C19.3335 15.4148 18.7716 16.7714 17.7714 17.7716C16.7712 18.7718 15.4146 19.3337 14.0001 19.3337H6.00014C4.58565 19.3337 3.2291 18.7718 2.22891 17.7716C1.22871 16.7714 0.666809 15.4148 0.666809 14.0003V6.00033C0.666809 4.58584 1.22871 3.22928 2.22891 2.22909C3.2291 1.2289 4.58565 0.666992 6.00014 0.666992V0.666992ZM10.0001 14.0003C8.93928 14.0003 7.92186 13.5789 7.17172 12.8288C6.42157 12.0786 6.00014 11.0612 6.00014 10.0003C6.00014 8.93946 6.42157 7.92204 7.17172 7.1719C7.92186 6.42175 8.93928 6.00033 10.0001 6.00033C11.061 6.00033 12.0784 6.42175 12.8286 7.1719C13.5787 7.92204 14.0001 8.93946 14.0001 10.0003C14.0001 11.0612 13.5787 12.0786 12.8286 12.8288C12.0784 13.5789 11.061 14.0003 10.0001 14.0003Z" stroke="#727272" stroke-width="1.15"/>
</svg>
