<svg width="93" height="65" viewBox="0 0 93 65" fill="none" xmlns="http://www.w3.org/2000/svg">
<path fill-rule="evenodd" clip-rule="evenodd" d="M89.1708 57.7838C90.7623 57.7838 92.1764 57.0468 92.9719 55.9862L91.6752 54.7778C90.9979 55.5737 90.2021 55.9563 89.2884 55.9563C88.5522 55.9563 87.963 55.721 87.4618 55.2202C86.9903 54.7483 86.7251 54.1296 86.7251 53.3931C86.7251 52.627 86.9903 52.0083 87.4912 51.5071C87.992 51.0059 88.5816 50.7702 89.2884 50.7702C90.2021 50.7702 90.9684 51.183 91.6167 51.9491L92.8839 50.6822C92.0884 49.6211 90.7328 48.9141 89.2003 48.9141C87.963 48.9141 86.9019 49.356 86.0471 50.181C85.1927 51.0357 84.7508 52.0963 84.7508 53.3931C84.7508 54.6894 85.1636 55.7501 86.018 56.5758C86.8724 57.4007 87.9036 57.7838 89.1708 57.7838ZM79.3875 55.9272C78.6807 55.9272 78.0911 55.662 77.6198 55.1907C77.1483 54.7189 76.9126 54.1002 76.9126 53.3931C76.9126 52.6565 77.1483 52.0378 77.6198 51.5661C78.0911 51.0651 78.6807 50.8295 79.3875 50.8295C80.0655 50.8295 80.6547 51.0651 81.1556 51.5661C81.6274 52.0378 81.8631 52.6565 81.8631 53.3931C81.8926 54.1002 81.6569 54.7189 81.1556 55.1907C80.6842 55.662 80.095 55.9272 79.3875 55.9272ZM79.3875 48.9141C78.2679 48.9141 77.3251 49.2677 76.5293 49.9453C75.7043 50.5934 75.2034 51.4482 74.9973 52.4798H73.9362V49.0909H71.9913V57.6659H73.9362V54.3359H74.9973C75.2034 55.3376 75.7043 56.1924 76.5293 56.8406C77.3251 57.4887 78.2679 57.8132 79.3875 57.8132C80.6547 57.8132 81.7154 57.3712 82.5706 56.5165C83.4541 55.6621 83.8669 54.6309 83.8669 53.3931C83.8669 52.1258 83.4541 51.0946 82.5706 50.2402C81.7154 49.356 80.6547 48.9141 79.3875 48.9141ZM63.2104 57.7838C64.2121 57.7838 64.9196 57.3415 65.4205 56.487C65.6561 56.1335 65.8329 55.6915 65.9803 55.1314L66.1279 54.3654C66.1865 54.1591 66.2454 53.8645 66.2749 53.511C66.3341 53.1279 66.3633 52.8627 66.3928 52.6859L66.4812 51.7723L66.5698 50.9473H68.2492V57.6659H70.1646V49.0909H64.8604L64.6836 50.7411C64.5955 51.4777 64.5365 52.0378 64.5068 52.3321C64.4773 52.6565 64.4184 53.069 64.3598 53.5404C64.2121 54.5422 64.0353 55.0434 63.7702 55.4853C63.505 55.9272 63.0925 56.1335 62.5917 56.1335H62.356L62.7092 57.7543C62.8863 57.7838 63.0631 57.7838 63.2104 57.7838ZM56.1088 57.6659V50.9179H59.468V57.6659H61.3837V49.0909H54.1935V57.6659H56.1088ZM42.2004 57.6659V53.1279L44.5578 56.4575H45.2354L47.5927 53.1279V57.6659H49.5082V49.0909H48.1234L44.9113 53.7466L41.6701 49.0909H40.3144V57.6659H42.2004ZM33.6846 57.7838C34.3622 57.7838 35.0104 57.5182 35.4229 57.1944C35.5997 57.0468 35.806 56.8111 36.0121 56.5165C36.2184 56.2219 36.3955 55.9862 36.4839 55.7501C36.6017 55.5439 36.749 55.279 36.9258 54.9251C37.3973 53.9529 37.8686 52.8333 38.6056 51.1241L39.5189 49.0909H37.2794L35.9536 52.7151L34.4801 49.0909H32.2112L34.922 54.8371C34.5096 55.6915 33.9792 56.1335 33.3605 56.1335C33.1245 56.1335 32.8593 56.0746 32.653 55.9862L32.5057 57.5182C32.8299 57.695 33.2129 57.7838 33.6846 57.7838ZM24.9328 57.6659L29.1761 52.3615V57.6659H31.0617V49.0909H29.8243L25.6399 54.4538V49.0909H23.7244V57.6659H24.9328ZM18.0964 53.0984V50.859H19.4815C20.1886 50.859 20.6306 51.3303 20.6306 51.9491C20.6306 52.5678 20.1886 53.0984 19.3931 53.0984H18.0964ZM16.181 49.0909V57.6659H18.0964V54.8076H19.3342C20.4243 54.8076 21.2492 54.5422 21.7799 54.0118C22.3103 53.4815 22.5754 52.8038 22.5754 51.9786C22.5754 51.1535 22.3397 50.4759 21.8094 49.9158C21.2791 49.356 20.5127 49.0909 19.4516 49.0909H16.181ZM10.7591 57.6659H12.6746V50.9179H15.0908V49.0909H8.31341V50.9179H10.7591V57.6659ZM5.77927 54.2475H3.92275L4.83647 51.5366L5.77927 54.2475ZM8.84368 57.6659L5.69088 49.0909H4.01115L0.799316 57.6659H2.80279L3.39238 55.9272H6.2801L6.83993 57.6659H8.84368Z" fill="#727272"/>
<path fill-rule="evenodd" clip-rule="evenodd" d="M65.4521 64.9727C66.0304 64.9727 66.5538 64.6973 66.8568 64.2843L66.5263 64.0362C66.2784 64.3666 65.8927 64.5597 65.4796 64.5597C65.1214 64.5597 64.846 64.4494 64.598 64.229C64.3779 64.0088 64.2676 63.7055 64.2676 63.3477C64.2676 62.9895 64.3779 62.714 64.6254 62.4661C64.846 62.2182 65.1214 62.1079 65.4796 62.1079C65.8927 62.1079 66.2509 62.301 66.5263 62.6591L66.8293 62.3833C66.6915 62.1907 66.5263 62.0255 66.2784 61.8878C66.0304 61.7501 65.755 61.6947 65.4796 61.6947C65.0111 61.6947 64.6254 61.8603 64.2951 62.1632C63.9644 62.4661 63.8267 62.8793 63.8267 63.3477C63.8267 63.8433 63.9644 64.229 64.2951 64.5322C64.598 64.8351 64.9837 64.9727 65.4521 64.9727ZM62.725 63.7055H61.8159L62.2843 62.4936L62.725 63.7055ZM63.6615 64.9453L62.3946 61.7501H62.1466L60.8794 64.9453H61.3478L61.6507 64.1187H62.8627L63.1934 64.9453H63.6615ZM58.8408 64.5322V63.4301H59.6397C60.0252 63.4301 60.2733 63.678 60.2733 63.981C60.2733 64.1465 60.218 64.2567 60.108 64.3666C59.9978 64.4769 59.8326 64.5322 59.6671 64.5322H58.8408ZM59.6122 62.1632C59.9151 62.1632 60.108 62.3558 60.108 62.5764C60.108 62.8243 59.9151 63.0444 59.5847 63.0444H58.8408V62.1632H59.6122ZM60.108 63.1822C60.3835 63.0997 60.5487 62.8243 60.5487 62.5489C60.5487 62.3285 60.4659 62.1632 60.3008 61.998C60.163 61.8325 59.9426 61.7501 59.6671 61.7501H58.4002V64.9453H59.7224C60.0252 64.9453 60.2733 64.8351 60.4384 64.6699C60.6315 64.4769 60.7138 64.2567 60.7138 64.0088C60.7138 63.6506 60.4934 63.2924 60.108 63.1822ZM56.3067 63.3477C56.3067 63.7055 56.1964 63.981 55.9485 64.229C55.7284 64.4494 55.4254 64.5597 55.0947 64.5597C54.7643 64.5597 54.4611 64.4494 54.241 64.229C54.0205 63.981 53.9102 63.7055 53.9102 63.3477C53.9102 62.9895 54.0205 62.714 54.241 62.4661C54.4889 62.2457 54.7643 62.1079 55.0947 62.1079C55.4254 62.1079 55.7284 62.2457 55.9485 62.4661C56.1964 62.714 56.3067 62.9895 56.3067 63.3477ZM53.4421 63.3751C53.4421 63.8158 53.6073 64.2015 53.9102 64.5044C54.241 64.8351 54.6266 65.0002 55.0947 65.0002C55.5353 65.0002 55.9485 64.8351 56.2517 64.5044C56.5821 64.174 56.7472 63.7883 56.7472 63.3477C56.7472 62.8793 56.5821 62.4936 56.2517 62.1907C55.9485 61.8603 55.5353 61.6947 55.0947 61.6947C54.6541 61.6947 54.2684 61.8603 53.9377 62.1907C53.6073 62.4936 53.4421 62.9068 53.4421 63.3751ZM49.4753 64.9453L51.3483 62.5489V64.9453H51.7893V61.7501H51.5413L49.6679 64.1465V61.7501H49.2273V64.9453H49.4753ZM50.5494 61.5846C50.8799 61.5846 51.1556 61.4468 51.4033 61.1439L51.1557 60.896C50.9901 61.1164 50.77 61.2542 50.5494 61.2542C50.329 61.2542 50.1089 61.1164 49.9159 60.896L49.6957 61.1439C49.9158 61.4468 50.2191 61.5846 50.5494 61.5846ZM48.1806 63.3477C48.1806 63.7055 48.0703 63.981 47.8502 64.229C47.6022 64.4494 47.3267 64.5597 46.9964 64.5597C46.6378 64.5597 46.3624 64.4494 46.1423 64.229C45.8944 63.981 45.7841 63.7055 45.7841 63.3477C45.7841 62.9895 45.8944 62.714 46.1423 62.4661C46.3624 62.2457 46.6656 62.1079 46.9964 62.1079C47.3267 62.1079 47.6022 62.2457 47.8502 62.4661C48.0703 62.714 48.1806 62.9895 48.1806 63.3477ZM45.3435 63.3751C45.3435 63.8158 45.4812 64.2015 45.8116 64.5044C46.1148 64.8351 46.5002 65.0002 46.9685 65.0002C47.437 65.0002 47.8227 64.8351 48.1531 64.5044C48.4838 64.174 48.6489 63.7883 48.6489 63.3477C48.6489 62.8793 48.4838 62.4936 48.1531 62.1907C47.8227 61.8603 47.437 61.6947 46.9964 61.6947C46.528 61.6947 46.1423 61.8603 45.8116 62.1907C45.5087 62.4936 45.3435 62.9068 45.3435 63.3751ZM43.8561 64.9453H44.2968V62.1632H45.2333V61.7501H42.9196V62.1632H43.8561V64.9453ZM42.3684 63.3477C42.3684 63.7055 42.2582 63.981 42.0102 64.229C41.79 64.4494 41.5146 64.5597 41.1564 64.5597C40.8257 64.5597 40.5228 64.4494 40.3024 64.229C40.0823 63.981 39.972 63.7055 39.972 63.3477C39.972 62.9895 40.0823 62.714 40.3024 62.4661C40.5503 62.2457 40.8257 62.1079 41.1564 62.1079C41.4868 62.1079 41.79 62.2457 42.0102 62.4661C42.2582 62.714 42.3684 62.9895 42.3684 63.3477ZM39.5039 63.3751C39.5039 63.8158 39.6691 64.2015 39.972 64.5044C40.3024 64.8351 40.688 65.0002 41.1564 65.0002C41.5971 65.0002 42.0102 64.8351 42.3135 64.5044C42.6441 64.174 42.8093 63.7883 42.8093 63.3477C42.8093 62.8793 42.6441 62.4936 42.3135 62.1907C42.0102 61.8603 41.6245 61.6947 41.1564 61.6947C40.7158 61.6947 40.3302 61.8603 39.9995 62.1907C39.6691 62.4936 39.5039 62.9068 39.5039 63.3751ZM37.3551 64.5322V63.3477H38.044C38.512 63.3477 38.7325 63.6231 38.7325 63.9535C38.7325 64.2843 38.4571 64.5322 38.0162 64.5322H37.3551ZM37.3551 62.9345V62.1632H38.8977V61.7501H36.9144V64.9453H38.0715C38.4293 64.9453 38.7051 64.8351 38.8702 64.642C39.063 64.4494 39.1731 64.229 39.1731 63.9535C39.1731 63.7333 39.0904 63.4301 38.8428 63.21C38.6773 63.0444 38.4019 62.9345 38.044 62.9345H37.3551ZM35.5369 63.7055H34.6004L35.0689 62.4936L35.5369 63.7055ZM36.4735 64.9453L35.2065 61.7501H34.9586L33.6639 64.9453H34.1324L34.4628 64.1187H35.6747L36.0054 64.9453H36.4735ZM32.2865 65.0002C32.6446 65.0002 32.9475 64.8901 33.1684 64.7248C33.3885 64.5597 33.4713 64.3391 33.4713 64.0362C33.4713 63.6506 33.2507 63.3477 32.8377 63.265V63.2375C33.1959 63.1272 33.3885 62.8793 33.3885 62.5489C33.3885 62.301 33.306 62.1079 33.1131 61.9428C32.9201 61.7775 32.6721 61.6947 32.3692 61.6947C31.9835 61.6947 31.5704 61.8325 31.3224 62.0529L31.5155 62.3833C31.7909 62.1907 32.0663 62.0804 32.3417 62.0804C32.6999 62.0804 32.9753 62.2735 32.9475 62.5764C32.9475 62.8793 32.6721 63.0997 32.2589 63.0997H31.7909V63.4854H32.3142C32.7549 63.4854 33.0303 63.7055 33.0303 64.0362C33.0303 64.3666 32.7549 64.5872 32.3142 64.5872C32.011 64.5872 31.7081 64.5044 31.4052 64.3117L31.2122 64.6699C31.543 64.8901 31.9286 65.0002 32.2865 65.0002ZM28.5404 64.9727C29.1465 64.9727 29.6424 64.6973 29.9453 64.2843L29.6424 64.0362C29.3669 64.3666 29.0087 64.5597 28.5682 64.5597C28.2096 64.5597 27.9342 64.4494 27.714 64.229C27.4661 64.0088 27.3558 63.7055 27.3558 63.3477C27.3558 62.9895 27.4661 62.714 27.714 62.4661C27.9342 62.2182 28.2375 62.1079 28.5682 62.1079C29.0087 62.1079 29.3391 62.301 29.6146 62.6591L29.9453 62.3833C29.8076 62.1907 29.6146 62.0255 29.3669 61.8878C29.119 61.7501 28.8436 61.6947 28.5682 61.6947C28.0997 61.6947 27.714 61.8603 27.3834 62.1632C27.0804 62.4661 26.9153 62.8793 26.9153 63.3477C26.9153 63.8433 27.0804 64.229 27.3834 64.5322C27.714 64.8351 28.0997 64.9727 28.5404 64.9727Z" fill="#727272"/>
<path fill-rule="evenodd" clip-rule="evenodd" d="M57.1419 23.5985H36.6562L46.8991 39.2953L57.1419 23.5985ZM43.9727 36.8207L35.1132 23.2791L23.2741 17.6655L43.9727 36.8207ZM70.524 17.6655L58.6584 23.2791L49.8255 36.8207L70.524 17.6655ZM62.4892 4.81574L54.5347 1.11762H39.2635L31.282 4.81574L31.8144 6.70435L39.2635 10.1895H54.5347L61.9841 6.70435L62.4892 4.81574ZM63.7668 4.17678L63.7932 4.20362H63.8198L72.7324 11.0142L72.9185 11.2803L74.4085 15.4839L74.3816 15.5104L74.435 15.537L73.956 15.9895L47.2719 40.7052L46.8991 41.0777L46.5267 40.7052L19.8422 15.9895L19.3367 15.537L19.4164 15.5104L19.39 15.4839L20.8532 11.2803L21.0392 11.0142L29.9784 4.20362H30.0053L30.0317 4.17678L30.4042 4.01763L38.8911 0.0533069L39.1305 0H54.6677L54.907 0.0533069L63.394 4.01763L63.7668 4.17678ZM63.1013 6.89071L72.8122 14.3134L71.9343 11.8124L63.5006 5.37417L63.1013 6.89071ZM55.3328 11.041L58.632 22.082L72.5196 15.4839L62.383 7.76866L55.3328 11.041ZM39.5562 11.3069L36.2309 22.4011H57.5676L54.242 11.3069H39.5562ZM31.3886 7.76866L21.279 15.4839L35.1665 22.082L38.4654 11.041L31.3886 7.76866ZM30.2978 5.37417L21.8642 11.8124L20.9863 14.3134L30.6968 6.89071L30.2978 5.37417Z" fill="#727272"/>
</svg>
