<svg width="16" height="15" viewBox="0 0 16 15" fill="none" xmlns="http://www.w3.org/2000/svg">
<path d="M13.625 14.8125H13.5294C2.47626 14.1769 0.90688 4.85063 0.687505 2.00438C0.653218 1.55817 0.797577 1.11662 1.08883 0.776845C1.38008 0.43707 1.79437 0.2269 2.24057 0.192563C2.28519 0.189188 2.33 0.187501 2.375 0.187501H5.33938C5.56469 0.187282 5.78488 0.254725 5.97142 0.381092C6.15796 0.507458 6.30226 0.686927 6.38563 0.896251L7.24063 3C7.32295 3.2045 7.34338 3.42867 7.29938 3.64468C7.25538 3.86068 7.14889 4.059 6.99313 4.215L5.795 5.42438C5.9814 6.48825 6.49047 7.46905 7.25319 8.23379C8.01592 8.99852 8.99538 9.51018 10.0588 9.69938L11.2794 8.49C11.4377 8.33596 11.6379 8.23195 11.855 8.19094C12.072 8.14993 12.2964 8.17373 12.5 8.25938L14.6206 9.10875C14.8268 9.19475 15.0027 9.34017 15.1259 9.5265C15.2491 9.71283 15.3141 9.93162 15.3125 10.155V13.125C15.3125 13.5726 15.1347 14.0018 14.8182 14.3182C14.5018 14.6347 14.0726 14.8125 13.625 14.8125ZM2.375 1.3125C2.30114 1.31228 2.22795 1.32661 2.15962 1.35467C2.09129 1.38274 2.02915 1.42398 1.97676 1.47606C1.92437 1.52814 1.88275 1.59002 1.85428 1.65818C1.82581 1.72634 1.81104 1.79944 1.81082 1.87331C1.81082 1.88906 1.81138 1.90463 1.8125 1.92C2.07125 5.25 3.73063 13.125 13.5913 13.6875C13.7401 13.6964 13.8865 13.6459 13.9981 13.5469C14.1097 13.448 14.1774 13.3088 14.1864 13.1599L14.1875 13.125V10.155L12.0669 9.30562L10.4525 10.9087L10.1825 10.875C5.28875 10.2619 4.625 5.36813 4.625 5.3175L4.59125 5.0475L6.18875 3.43313L5.345 1.3125H2.375Z" fill="#727272"/>
</svg>
