<svg width="18" height="18" viewBox="0 0 18 18" fill="none" xmlns="http://www.w3.org/2000/svg">
<path d="M8.4375 6.1875H9.5625V11.25H8.4375V6.1875ZM7.3125 1.125H10.6875V2.25H7.3125V1.125Z" fill="#727272"/>
<path d="M15.75 5.06263L14.9512 4.2695L13.6856 5.53513C12.6496 4.3387 11.1925 3.58743 9.61697 3.4374C8.04146 3.28736 6.46871 3.75011 5.2255 4.72948C3.9823 5.70885 3.16421 7.12956 2.94123 8.69641C2.71824 10.2633 3.1075 11.8558 4.02813 13.1431C4.94876 14.4304 6.32997 15.3135 7.88478 15.609C9.43959 15.9045 11.0485 15.5895 12.3771 14.7296C13.7058 13.8697 14.652 12.531 15.0193 10.9916C15.3866 9.45213 15.1467 7.83037 14.3494 6.46325L15.75 5.06263ZM9 14.6251C7.99873 14.6251 7.01995 14.3282 6.18742 13.7719C5.3549 13.2157 4.70603 12.425 4.32286 11.5C3.93969 10.5749 3.83943 9.55701 4.03477 8.57498C4.23011 7.59295 4.71227 6.6909 5.42027 5.9829C6.12827 5.27489 7.03032 4.79274 8.01235 4.5974C8.99438 4.40206 10.0123 4.50232 10.9373 4.88548C11.8624 5.26865 12.653 5.91753 13.2093 6.75005C13.7656 7.58257 14.0625 8.56136 14.0625 9.56262C14.0625 10.9053 13.5291 12.193 12.5797 13.1424C11.6303 14.0918 10.3427 14.6251 9 14.6251Z" fill="#727272"/>
</svg>
