<svg width="51" height="50" viewBox="0 0 51 50" fill="none" xmlns="http://www.w3.org/2000/svg">
<path d="M22.7918 2.9025C17.3713 0.778958 3.1415 0.0853125 1.21848 0L0.296287 0.232812C0.0829541 0.433958 -0.0834001 0.789896 0.0494124 1.21781V41.0681L0.0500375 41.3984L0.255454 41.6556C0.587017 42.0689 0.596184 42.081 12.1935 43.1855L11.7668 46.8195C11.7083 47.3205 11.9265 47.8118 12.341 48.1068C13.7819 49.1161 15.3783 49.5323 16.8313 49.6172C19.5835 49.778 20.8602 47.6557 20.8602 47.6557L25.6894 8.9001C25.9228 8.03458 25.918 7.05448 25.6516 6.11583C25.2262 4.61896 24.1839 3.44865 22.7918 2.9025ZM19.0664 46.9062C17.9735 48.085 15.6513 48.0143 13.6612 46.7379L17.7864 11.6041C17.8084 11.4164 17.9168 11.314 18.0034 11.2603C18.1381 11.1786 18.3045 11.1652 18.4599 11.2214C20.0655 11.815 22.0201 11.965 23.4902 11.4005L19.0664 46.9062ZM23.5317 9.15865C22.9143 9.98396 20.8888 10.1242 19.109 9.46583C18.4111 9.20615 17.6516 9.27927 17.025 9.66458C16.4113 10.04 16.0114 10.6678 15.9267 11.3847L12.4116 41.3255C8.9191 40.9927 3.80462 40.4868 1.92181 40.2638L1.91452 1.91042C5.42108 2.09208 17.4884 2.83562 22.1085 4.64594C23.2623 5.09823 23.6463 6.09823 23.8498 6.62813C24.2466 7.66052 23.6683 8.97698 23.5317 9.15865Z" fill="#BF8154"/>
<path d="M41.149 49.6804H48.8156C49.4697 49.6804 50.0017 49.1489 50.0017 48.4943V7.8004C50.0017 7.14582 49.4697 6.61426 48.8156 6.61426H41.149C40.4945 6.61426 39.9629 7.14572 39.9629 7.8004V48.4943C39.9629 49.1489 40.4944 49.6804 41.149 49.6804ZM41.8353 8.48665H48.1291V11.2136H46.2074C45.6905 11.2136 45.2711 11.633 45.2711 12.1499C45.2711 12.6668 45.6905 13.0861 46.2074 13.0861H48.1291V16.4799H46.2074C45.6905 16.4799 45.2711 16.8993 45.2711 17.4161C45.2711 17.933 45.6905 18.3524 46.2074 18.3524H48.1291V21.7474H46.2074C45.6905 21.7474 45.2711 22.1668 45.2711 22.6836C45.2711 23.2005 45.6905 23.6199 46.2074 23.6199H48.1291V27.0136H46.2074C45.6905 27.0136 45.2711 27.433 45.2711 27.9499C45.2711 28.4668 45.6905 28.8861 46.2074 28.8861H48.1291V32.2811H46.2074C45.6905 32.2811 45.2711 32.7005 45.2711 33.2174C45.2711 33.7343 45.6905 34.1536 46.2074 34.1536H48.1291V37.5486H46.2074C45.6905 37.5486 45.2711 37.968 45.2711 38.4849C45.2711 39.0018 45.6905 39.4211 46.2074 39.4211H48.1291V42.815H46.2074C45.6905 42.815 45.2711 43.2344 45.2711 43.7512C45.2711 44.2681 45.6905 44.6875 46.2074 44.6875H48.1291V47.8082H41.8353V8.48665Z" fill="#BF8154"/>
<path d="M33.865 23.7126C33.4481 22.8837 32.0998 22.8788 31.6799 23.715C31.6799 23.715 28.9785 29.4841 28.9785 29.7127V48.3701C28.9785 49.093 29.5667 49.6805 30.2896 49.6805H35.2565C35.9788 49.6805 36.567 49.0929 36.567 48.3701V29.7127C36.567 29.4842 33.865 23.7126 33.865 23.7126ZM30.8509 30.2747H34.6946V44.3107H30.8509V30.2747ZM32.7727 25.7155L34.116 28.4023H31.4299L32.7727 25.7155ZM34.6946 47.8081H30.8509V46.1831H34.6946V47.8081Z" fill="#BF8154"/>
</svg>
