<svg width="52" height="42" viewBox="0 0 52 42" fill="none" xmlns="http://www.w3.org/2000/svg">
<path d="M13.5983 39.1845L25.1414 35.9553V32.7325C25.1414 32.5024 25.2305 32.2805 25.391 32.116C25.5518 31.9512 25.7711 31.8575 26.0012 31.8575C26.2312 31.8575 26.4505 31.9512 26.6113 32.116C26.7718 32.2805 26.8609 32.5024 26.8609 32.7325V35.9553L38.4028 39.1845L36.1225 20.4828L36.1225 20.4827C36.0947 20.2542 36.1563 20.023 36.2954 19.8398L36.4945 19.991L36.2954 19.8398C36.4346 19.6564 36.6406 19.5356 36.8688 19.5064C37.0971 19.4772 37.3267 19.5423 37.5067 19.6859C37.6865 19.8293 37.802 20.0387 37.8298 20.2672L40.1041 38.9156L49.3872 33.0997L43.7831 12.9324L38.6856 15.8654L38.6748 15.8716L38.6747 15.8714C38.4762 15.9728 38.2467 15.9923 38.0341 15.9255C37.8216 15.8587 37.6441 15.7113 37.5368 15.5159C37.4296 15.3207 37.3999 15.0915 37.4532 14.8751C37.5065 14.6587 37.6394 14.4698 37.8263 14.3489L37.8373 14.3417L37.8375 14.342L43.8881 10.8624C43.8881 10.8624 43.8882 10.8623 43.8883 10.8623C44.0019 10.7966 44.1289 10.758 44.2598 10.7497L44.2755 10.9992L44.2598 10.7497C44.3908 10.7415 44.5217 10.7639 44.6426 10.8151C44.7634 10.8663 44.8708 10.9448 44.9568 11.0441L44.9568 11.0441C45.0426 11.1433 45.105 11.2606 45.1397 11.3872C45.1398 11.3874 45.1398 11.3877 45.1399 11.3879L51.2176 33.2618L51.2178 33.2624C51.268 33.4448 51.2588 33.639 51.1914 33.8158C51.124 33.9927 51.0016 34.1434 50.8416 34.2441L50.8412 34.2444L39.8677 41.118C39.8417 41.1348 39.8169 41.1446 39.7975 41.1506C39.7949 41.1514 39.7922 41.1521 39.7897 41.1528C39.6767 41.2126 39.5516 41.2459 39.4235 41.2499L39.4153 41.2501V41.25C39.3382 41.2498 39.2615 41.2391 39.1873 41.2182C39.1871 41.2182 39.187 41.2181 39.1868 41.2181L26.0012 37.5296L12.8155 41.2181C12.8154 41.2181 12.8153 41.2181 12.8153 41.2181L12.8148 41.2183L12.7475 40.9775C12.6951 40.9923 12.6409 40.9999 12.5865 41L13.5983 39.1845ZM13.5983 39.1845L15.8786 20.4828L15.8786 20.4827C15.8924 20.3695 15.8843 20.2545 15.8547 20.1443C15.8251 20.0341 15.7746 19.9306 15.7057 19.8398C15.6368 19.749 15.5508 19.6726 15.4524 19.6153C15.354 19.5579 15.2452 19.5209 15.1323 19.5064C15.0194 19.4919 14.9048 19.5004 14.7952 19.5313C14.6857 19.5622 14.5835 19.6149 14.4944 19.6859C14.4053 19.7569 14.3312 19.8449 14.2758 19.9446C14.2205 20.0444 14.1851 20.154 14.1713 20.2673C14.1713 20.2673 14.1713 20.2673 14.1713 20.2673L11.8981 38.9156L2.61515 33.1009L8.21917 12.9349L13.3167 15.8679L13.3166 15.8682L13.3276 15.8739C13.5261 15.9753 13.7557 15.9948 13.9682 15.928C14.1807 15.8612 14.3582 15.7138 14.4655 15.5184L13.5983 39.1845ZM1.16164 34.2459L12.1336 41.1194L0.784808 33.2626L1.02554 33.33L0.784666 33.2631L0.784709 33.2629C0.73363 33.4456 0.742461 33.6402 0.810007 33.8174C0.877551 33.9946 1.00047 34.1454 1.16111 34.2456C1.16129 34.2457 1.16146 34.2458 1.16164 34.2459ZM6.86199 11.3908L7.10359 11.455L6.86272 11.3881L6.86237 11.3893C6.86224 11.3898 6.86211 11.3903 6.86199 11.3908ZM8.11326 10.8638L8.11238 10.8633L7.98774 11.08L8.11428 10.8644C8.11394 10.8642 8.1136 10.864 8.11326 10.8638ZM7.99546 12.8062L8.06457 12.5575L8.28827 12.6862L7.99546 12.8062Z" fill="#BF8154" stroke="#BF8154" stroke-width="0.5"/>
<path d="M25.4172 30.3914L25.4173 30.3916C25.5748 30.5406 25.7822 30.6248 25.9989 30.6257C26.2156 30.6267 26.4237 30.5445 26.5825 30.3969L26.5828 30.3966C26.7919 30.2016 29.2946 27.8481 31.7468 24.382C34.1942 20.9227 36.6184 16.3174 36.6184 11.625C36.6184 5.53403 31.9598 0.75 26.0026 0.75C20.0453 0.75 15.3867 5.53403 15.3867 11.625C15.3867 16.2378 17.8105 20.8408 20.2562 24.3173C22.707 27.8011 25.2083 30.1934 25.4172 30.3914ZM26.0026 2.5C31.0722 2.5 34.8989 6.41224 34.8989 11.625C34.8989 15.3625 33.1036 19.1677 31.0564 22.2861C29.1354 25.2121 27.0118 27.5048 26.0074 28.5272C25.0045 27.493 22.878 25.1714 20.954 22.232C18.9038 19.0998 17.1062 15.3001 17.1062 11.625C17.1062 6.41224 20.933 2.5 26.0026 2.5Z" fill="#BF8154" stroke="#BF8154" stroke-width="0.5"/>
<path d="M31.7393 11.625C31.7393 8.39153 29.1709 5.75 26.0015 5.75C22.832 5.75 20.2637 8.39153 20.2637 11.625C20.2637 14.8585 22.832 17.5 26.0015 17.5C29.1709 17.5 31.7393 14.8585 31.7393 11.625ZM26.0015 15.75C23.7917 15.75 21.9832 13.9053 21.9832 11.625C21.9832 9.34472 23.7917 7.5 26.0015 7.5C28.2113 7.5 30.0198 9.34472 30.0198 11.625C30.0198 13.9053 28.2113 15.75 26.0015 15.75Z" fill="#BF8154" stroke="#BF8154" stroke-width="0.5"/>
</svg>
