<svg width="50" height="50" viewBox="0 0 50 50" fill="none" xmlns="http://www.w3.org/2000/svg">
<path d="M21.6214 31.6097H41.4518C43.1898 31.6097 44.6046 30.1956 44.6046 28.4575V19.4917H48.53C49.1073 19.4917 49.6178 19.127 49.8608 18.5411C50.1235 17.9082 50.006 17.1887 49.5709 16.7536L33.6054 0.672579C32.7352 -0.196482 31.3451 -0.222419 30.502 0.618204L14.5432 16.7809C14.1093 17.216 13.9906 17.9243 14.2478 18.5448C14.4901 19.1295 15.0012 19.4917 15.5823 19.4917H18.4681V28.4575C18.468 30.1956 19.8828 31.6097 21.6214 31.6097ZM34.177 29.711H29.7467V22.4684C29.7467 22.2941 29.8889 22.1519 30.0632 22.1519H33.8607C34.0349 22.1519 34.1771 22.2941 34.1771 22.4684V29.711H34.177ZM42.7059 28.4575C42.7059 29.1486 42.1429 29.711 41.4518 29.711H36.0758V22.4684C36.0758 21.247 35.0819 20.2532 33.8606 20.2532H30.0631C28.8417 20.2532 27.8479 21.247 27.8479 22.4684V29.711H21.6213C20.9296 29.711 20.3666 29.1485 20.3666 28.4575V18.8341L32.0051 7.09559L42.9017 17.9922C42.7867 18.1492 42.7058 18.3328 42.7058 18.5423V28.4575H42.7059ZM31.8482 1.95695C31.9551 1.85185 32.1498 1.90383 32.2611 2.01258L47.729 17.593H45.1874L33.3476 5.75309C32.6356 5.04226 31.4766 5.04226 30.764 5.75309L18.9241 17.593H16.4098L31.8482 1.95695Z" fill="#BF8154"/>
<path d="M1.20281 0C0.539583 0 0 0.538958 0 1.20281V48.7985C0 49.461 0.539583 49.9999 1.20281 49.9999H9.55676C10.22 49.9999 10.7596 49.461 10.7596 48.7984V1.20281C10.7596 0.538958 10.22 0 9.55676 0H1.20281ZM1.89875 48.1012V1.89875H8.86072V6.32916H6.0127C5.48853 6.32916 5.06333 6.75437 5.06333 7.27853C5.06333 7.8027 5.48853 8.22791 6.0127 8.22791H8.86082V11.3925H6.0127C5.48853 11.3925 5.06333 11.8177 5.06333 12.3419C5.06333 12.866 5.48853 13.2912 6.0127 13.2912H8.86082V16.4558H6.0127C5.48853 16.4558 5.06333 16.881 5.06333 17.4052C5.06333 17.9294 5.48853 18.3546 6.0127 18.3546H8.86082V21.5191H6.0127C5.48853 21.5191 5.06333 21.9443 5.06333 22.4685C5.06333 22.9927 5.48853 23.4179 6.0127 23.4179H8.86082V26.5825H6.0127C5.48853 26.5825 5.06333 27.0077 5.06333 27.5318C5.06333 28.056 5.48853 28.4812 6.0127 28.4812H8.86082V31.6458H6.0127C5.48853 31.6458 5.06333 32.071 5.06333 32.5952C5.06333 33.1193 5.48853 33.5445 6.0127 33.5445H8.86082V36.7091H6.0127C5.48853 36.7091 5.06333 37.1343 5.06333 37.6585C5.06333 38.1827 5.48853 38.6079 6.0127 38.6079H8.86082V41.7724H6.0127C5.48853 41.7724 5.06333 42.1977 5.06333 42.7218C5.06333 43.246 5.48853 43.6712 6.0127 43.6712H8.86082V48.1016H1.89875V48.1012Z" fill="#BF8154"/>
<path d="M48.6726 40.5063H23.6461C23.3741 40.5063 15.9269 44.0652 15.9269 44.0652C15.4733 44.2914 15.1914 44.7463 15.1914 45.2544C15.1914 45.7611 15.4733 46.2161 15.9263 46.4423C15.9263 46.4423 23.3747 49.9999 23.6461 49.9999H48.6726C49.405 49.9999 50.0015 49.404 50.0015 48.671V41.8365C50.0015 41.1034 49.405 40.5063 48.6726 40.5063ZM17.7947 45.2544L22.3166 42.9922V47.5153L17.7947 45.2544ZM24.2154 42.4051H43.4561V48.1013H24.2154V42.4051ZM48.1027 48.1012H45.3547V42.405H48.1027V48.1012Z" fill="#BF8154"/>
</svg>
