<svg width="50" height="50" viewBox="0 0 50 50" fill="none" xmlns="http://www.w3.org/2000/svg">
<path d="M47.3225 31.2049C44.6877 30.0981 42.3162 28.5221 40.2742 26.5219C39.0319 25.3039 36.8925 25.3039 35.6461 26.5219C35.0435 27.1123 34.4039 27.6535 33.7456 28.1687C32.7668 27.7671 27.2332 26.5057 26.6051 26.3109C25.3605 25.9238 24.3476 24.9765 23.8632 23.7857C27.7038 22.1152 29.7394 17.7978 30.0638 13.4566V12.8065H31.6961C32.1881 12.8065 32.5862 12.4079 32.5862 11.9165C32.5862 11.4251 32.1881 11.0265 31.6961 11.0265H30.5836L30.4602 9.7749C30.1687 6.829 28.1465 4.38262 25.3084 3.54121L23.6859 3.06025V2.45303C23.6859 1.96162 23.2878 1.56299 22.7959 1.56299H17.7303C17.2395 1.56299 16.8415 1.96045 16.8403 2.45068L16.8391 3.05449L15.1795 3.54697C12.353 4.38486 10.3325 6.8208 10.0312 9.75049L9.89966 11.0265H8.80982C8.31841 11.0265 7.91978 11.4251 7.91978 11.9165C7.91978 12.4079 8.31841 12.8065 8.80982 12.8065H10.4844L10.4856 13.5239C10.8066 17.7863 12.819 22.0672 16.6155 23.7563C16.1363 24.9726 15.1704 25.9206 13.8979 26.3135C12.8167 26.6473 8.61919 27.5662 8.61919 27.5662C8.61861 27.5662 8.61802 27.5662 8.61802 27.5662C8.03804 27.6948 2.93482 28.9384 2.34614 33.0616C1.99097 35.5416 1.57661 37.8953 1.57603 37.9C1.53023 38.1584 1.6021 38.425 1.77075 38.6267C1.93999 38.8283 2.1897 38.9442 2.45279 38.9442H29.7213C30.7307 40.963 31.947 42.8764 33.3748 44.661L35.4208 47.2176C36.0408 47.9929 36.9668 48.4379 37.9599 48.4379C38.9537 48.4379 39.8791 47.9929 40.4997 47.2176L42.5468 44.6588C45.2291 41.305 47.1875 37.5107 48.3673 33.3816C48.6205 32.4959 48.1709 31.5606 47.3225 31.2049ZM31.965 29.426C30.896 30.1057 29.7776 30.7095 28.5967 31.2049C28.2589 31.3475 28.0081 31.5972 27.8163 31.8834L28.6084 28.6576C28.6917 28.6773 31.6828 29.342 31.965 29.426ZM24.8025 5.24697C26.9435 5.88203 28.4686 7.72813 28.6888 9.95088L28.7955 11.0264H23.6859V4.91611L24.8025 5.24697ZM21.9058 3.34297V11.0264H18.6018L18.6186 3.34297H21.9058ZM11.8021 9.9335C12.0293 7.72236 13.5538 5.88555 15.6861 5.25273L16.8351 4.91201L16.8218 11.0263H11.6897L11.8021 9.9335ZM12.2633 13.4565V12.8064H28.2849L28.2861 13.3894C27.9361 18.0435 25.3228 22.7381 20.2736 22.7381C15.2244 22.7381 12.611 18.0434 12.2633 13.4565ZM20.2735 24.5181C20.9421 24.5181 21.5691 24.4422 22.1677 24.3199C22.4922 25.181 22.9981 25.9412 23.643 26.563L20.2973 29.28L16.8977 26.534C17.5282 25.9157 18.0212 25.1636 18.3376 24.313C18.9484 24.4404 19.5892 24.5181 20.2735 24.5181ZM11.9035 28.6582L14.0683 37.1639H8.42857V29.4619C8.74615 29.364 11.1079 28.8419 11.9035 28.6582ZM4.10767 33.3141C4.32144 31.8191 5.50064 30.8265 6.64849 30.2024V37.1639H3.50738C3.66265 36.231 3.89673 34.7893 4.10767 33.3141ZM15.9051 37.1639L13.6326 28.2353C13.9246 28.1588 15.084 27.7671 15.3947 27.6095L19.7399 31.118C19.9027 31.2489 20.1009 31.3149 20.2991 31.3149C20.4978 31.3149 20.6965 31.2489 20.86 31.1156L25.1531 27.6297C25.4492 27.7769 26.5837 28.1564 26.8793 28.2335L24.6873 37.1639H15.9051ZM26.52 37.1639C26.52 37.1639 27.5236 33.2799 27.5531 33.3824C27.9234 34.6786 28.3793 35.9372 28.9008 37.1639H26.52ZM41.1567 43.5458L39.1095 46.1046C38.548 46.8068 37.3723 46.8068 36.8103 46.1046L34.7649 43.548C32.2304 40.3809 30.3796 36.7952 29.2869 32.8457C33.1543 31.2744 36.1602 28.5104 36.8926 27.793C37.18 27.5113 37.559 27.3561 37.9611 27.3561C38.3621 27.3561 38.741 27.5113 39.0279 27.793C41.2321 29.9508 43.7903 31.6509 46.6551 32.8933C45.5407 36.7941 43.6906 40.3774 41.1567 43.5458Z" fill="#BF8154"/>
<path d="M35.1229 36.166C34.7752 35.8184 34.212 35.8184 33.8643 36.166C33.5166 36.5137 33.5166 37.0769 33.8643 37.4246L36.2603 39.82C36.459 40.0205 36.7244 40.1306 37.0065 40.1306C37.2888 40.1306 37.5535 40.0205 37.7506 39.8223L42.6613 34.9109C43.009 34.5633 43.009 34.0001 42.6613 33.6523C42.3143 33.3047 41.7505 33.3047 41.4027 33.6523L37.0065 38.0491L35.1229 36.166Z" fill="#BF8154"/>
</svg>
