<svg width="75" height="75" viewBox="0 0 75 75" fill="none" xmlns="http://www.w3.org/2000/svg">
<path d="M71.25 18.0005H19.425C19.05 13.8005 15.525 10.5005 11.25 10.5005C6.67503 10.5005 3.00003 14.1755 3.00003 18.7505V56.2505C3.00003 60.8255 6.67503 64.5005 11.25 64.5005H71.25C71.7 64.5005 72 64.2005 72 63.7505V18.7505C72 18.3005 71.7 18.0005 71.25 18.0005ZM4.50003 18.7505C4.50003 15.0005 7.50003 12.0005 11.25 12.0005C15 12.0005 18 15.0005 18 18.7505V51.5255C16.5 49.4255 14.025 48.0005 11.25 48.0005C8.47503 48.0005 6.00003 49.4255 4.50003 51.5255V18.7505ZM70.5 63.0005H11.25C7.50003 63.0005 4.50003 60.0005 4.50003 56.2505C4.50003 52.5005 7.50003 49.5005 11.25 49.5005C15 49.5005 18 52.5005 18 56.2505C18 56.7005 18.3 57.0005 18.75 57.0005C19.2 57.0005 19.5 56.7005 19.5 56.2505V19.5005H70.5V63.0005Z" fill="white"/>
<path d="M31.575 43.9507L30 54.6757C29.925 55.0507 30.225 55.4257 30.6 55.5007C30.675 55.5007 30.675 55.5007 30.75 55.5007C31.05 55.5007 31.35 55.2757 31.5 54.9757L34.275 45.8257C35.25 46.2757 36.3 46.5007 37.5 46.5007C38.7 46.5007 39.75 46.2757 40.8 45.8257L43.5 54.9757C43.575 55.2757 43.875 55.5007 44.25 55.5007C44.325 55.5007 44.325 55.5007 44.4 55.5007C44.775 55.4257 45 55.0507 45 54.6757L43.425 44.0257C44.85 42.5257 45.75 40.5007 45.75 38.3257C45.75 37.8757 45.45 37.5757 45 37.5757C44.55 37.5757 44.25 37.8757 44.25 38.3257C44.25 39.6757 43.8 40.9507 43.125 42.0757L41.25 29.1757C41.25 28.3507 40.95 27.6757 40.5 27.0757V25.2007C40.5 23.7757 39.525 22.5757 38.25 22.5757H36.75C35.475 22.5757 34.5 23.7757 34.5 25.2007V27.0007C34.05 27.6007 33.75 28.3507 33.75 29.1007L31.875 42.0007C31.2 40.9507 30.75 39.6757 30.75 38.2507C30.75 37.8007 30.45 37.5007 30 37.5007C29.55 37.5007 29.25 37.8007 29.25 38.2507C29.25 40.5007 30.15 42.5257 31.575 43.9507ZM41.7 43.5757L38.475 32.8507C39.075 32.7007 39.675 32.3257 40.125 31.8757L41.85 43.3507C41.775 43.5007 41.7 43.5007 41.7 43.5757ZM39.75 29.2507C39.75 30.5257 38.775 31.5007 37.5 31.5007C36.225 31.5007 35.25 30.5257 35.25 29.2507C35.25 27.9757 36.225 27.0007 37.5 27.0007C38.775 27.0007 39.75 27.9757 39.75 29.2507ZM34.875 31.9507C35.325 32.4007 35.925 32.7007 36.525 32.9257L33.3 43.6507C33.225 43.5757 33.225 43.5757 33.15 43.5007L34.875 31.9507ZM37.5 45.0007C36.45 45.0007 35.55 44.7757 34.65 44.3257L37.5 34.8757L40.35 44.4007C39.45 44.7757 38.55 45.0007 37.5 45.0007ZM36.75 24.0007H38.25C38.625 24.0007 39 24.5257 39 25.1257V25.8007C38.55 25.5757 38.025 25.5007 37.5 25.5007C36.975 25.5007 36.45 25.6507 36 25.8007V25.1257C36 24.5257 36.375 24.0007 36.75 24.0007Z" fill="white"/>
<path d="M51.0001 48.9005C51.0001 48.9755 51.0001 48.9755 51.0751 49.0505L54.0751 55.0505C54.2251 55.2755 54.4501 55.5005 54.7501 55.5005C55.0501 55.5005 55.2751 55.3505 55.4251 55.0505L58.4251 49.0505C58.4251 48.9755 58.4251 48.9755 58.5001 48.9005C58.5001 48.8255 58.5001 48.8255 58.5001 48.7505V27.7505V26.2505C58.5001 24.1505 56.8501 22.5005 54.7501 22.5005C52.6501 22.5005 51.0001 24.1505 51.0001 26.2505V27.7505V48.7505C51.0001 48.8255 51.0001 48.9005 51.0001 48.9005ZM52.5001 48.0005V31.5005H54.0001V48.0005H52.5001ZM55.5001 31.5005H57.0001V48.0005H55.5001V31.5005ZM57.0001 30.0005H52.5001V28.5005H57.0001V30.0005ZM54.7501 53.1005L52.9501 49.5005H56.5501L54.7501 53.1005ZM52.5001 26.2505C52.5001 24.9755 53.4751 24.0005 54.7501 24.0005C56.0251 24.0005 57.0001 24.9755 57.0001 26.2505V27.0005H52.5001V26.2505Z" fill="white"/>
</svg>
