<svg width="69" height="69" viewBox="0 0 69 69" fill="none" xmlns="http://www.w3.org/2000/svg">
<path d="M29.25 60.0005H24V27.0005H25.5C25.95 27.0005 26.25 26.7005 26.25 26.2505V22.5005H53.25V26.2505C53.25 26.7005 53.55 27.0005 54 27.0005H56.25V31.1255L46.8 38.4005C46.575 38.6255 46.425 38.9255 46.575 39.2255C46.65 39.5255 46.95 39.7505 47.25 39.7505H66.75C67.05 39.7505 67.35 39.5255 67.425 39.2255C67.5 38.9255 67.425 38.5505 67.2 38.4005L57.75 31.1255V27.0005H60C60.45 27.0005 60.75 26.7005 60.75 26.2505V22.5005H61.5C61.95 22.5005 62.25 22.2005 62.25 21.7505V18.0005V17.9255C62.25 17.8505 62.25 17.7755 62.175 17.7755C62.175 17.7755 62.175 17.7005 62.1 17.7005C62.1 17.6255 62.025 17.6255 62.025 17.5505L61.95 17.4755C61.875 17.4755 61.875 17.4005 61.8 17.4005L17.55 0.150488C17.55 0.150488 17.55 0.150488 17.475 0.150488C17.4 0.150488 17.4 0.150488 17.325 0.150488C17.25 0.000488136 17.25 0.000488281 17.175 0.000488281C17.175 0.000488281 17.175 0.000488281 17.1 0.000488281C16.8 0.000488281 16.5 0.225488 16.35 0.525488L16.275 0.675488L8.40003 10.8005L2.40003 18.3005L2.32503 18.3755C2.32503 18.3755 2.32503 18.4505 2.25003 18.4505C2.25003 18.6005 2.25003 18.6755 2.25003 18.7505V40.5005H0.750031C0.300031 40.5005 3.05176e-05 40.8005 3.05176e-05 41.2505V51.7505C3.05176e-05 52.2005 0.300031 52.5005 0.750031 52.5005H5.25003C5.70003 52.5005 6.00003 52.2005 6.00003 51.7505V41.2505C6.00003 40.8005 5.70003 40.5005 5.25003 40.5005H3.75003V20.9255L8.40003 26.7755C8.47503 26.8505 8.55003 26.8505 8.55003 26.9255C8.55003 26.9255 8.62503 26.9255 8.62503 27.0005C8.77503 27.0005 8.92503 27.0005 9.00003 27.0005H10.5V60.0005H5.25003C4.80003 60.0005 4.50003 60.3005 4.50003 60.7505V68.2505C4.50003 68.7005 4.80003 69.0005 5.25003 69.0005H29.25C29.7 69.0005 30 68.7005 30 68.2505V60.7505C30 60.3005 29.7 60.0005 29.25 60.0005ZM49.425 38.2505L57 32.4755L64.575 38.2505H49.425ZM4.50003 51.0005H1.50003V42.0005H4.50003V51.0005ZM22.5 47.4755L18.3 43.5005L22.5 39.5255V47.4755ZM17.25 42.4505L12.3 37.7255L17.25 33.0005L22.2 37.7255L17.25 42.4505ZM12 39.5255L16.2 43.5005L12 47.4755V39.5255ZM17.25 44.5505L22.2 49.2755L17.25 53.9255L12.3 49.2005L17.25 44.5505ZM22.5 51.0005V58.9505L18.3 54.9755L22.5 51.0005ZM18.3 32.0255L22.5 28.0505V36.0005L18.3 32.0255ZM17.25 30.9755L13.125 27.0005H21.375L17.25 30.9755ZM16.2 32.0255L12 36.0005V27.9755L16.2 32.0255ZM16.2 54.9755L12 59.0255V51.0005L16.2 54.9755ZM17.25 56.0255L21.375 60.0005H13.125L17.25 56.0255ZM25.5 10.5005H20.775L18.3 1.95049L55.575 16.5005L26.25 12.8255V11.2505C26.25 10.8005 25.95 10.5005 25.5 10.5005ZM19.275 10.5005H14.55L17.1 3.22549L19.275 10.5005ZM14.25 12.0005H24.75V13.5005V21.0005H14.25V12.0005ZM59.25 25.5005H54.75V22.5005H59.25V25.5005ZM60.75 21.0005H60H54H26.25V14.3255L60.75 18.6005V21.0005ZM12.975 10.5005H10.575L14.925 5.02549L12.975 10.5005ZM8.25003 13.4255V24.1505L3.97503 18.7505L8.25003 13.4255ZM9.75003 12.0005H12.75V21.7505C12.75 22.2005 13.05 22.5005 13.5 22.5005H24.75V25.5005H23.25H11.25H9.75003V12.0005ZM28.5 67.5005H6.00003V61.5005H11.25H23.25H28.5V67.5005Z" fill="white"/>
<path d="M68.25 64.5H67.5V44.25C67.5 43.8 67.2 43.5 66.75 43.5H47.25C46.8 43.5 46.5 43.8 46.5 44.25V64.5H45.75C45.3 64.5 45 64.8 45 65.25V68.25C45 68.7 45.3 69 45.75 69H68.25C68.7 69 69 68.7 69 68.25V65.25C69 64.8 68.7 64.5 68.25 64.5ZM48 45H66V64.5H61.5V56.25C61.5 55.8 61.2 55.5 60.75 55.5H53.25C52.8 55.5 52.5 55.8 52.5 56.25V64.5H48V45ZM60 64.5H54V57H60V64.5ZM67.5 67.5H46.5V66H47.25H53.25H60.75H66.75H67.5V67.5Z" fill="white"/>
<path d="M55.5001 53.2505C55.9501 53.2505 56.2501 52.9505 56.2501 52.5005V48.0005C56.2501 47.5505 55.9501 47.2505 55.5001 47.2505H51.0001C50.5501 47.2505 50.2501 47.5505 50.2501 48.0005V52.5005C50.2501 52.9505 50.5501 53.2505 51.0001 53.2505H55.5001ZM51.7501 48.7505H54.7501V51.7505H51.7501V48.7505Z" fill="white"/>
<path d="M58.5001 53.2505H63.0001C63.4501 53.2505 63.7501 52.9505 63.7501 52.5005V48.0005C63.7501 47.5505 63.4501 47.2505 63.0001 47.2505H58.5001C58.0501 47.2505 57.7501 47.5505 57.7501 48.0005V52.5005C57.7501 52.9505 58.0501 53.2505 58.5001 53.2505ZM59.2501 48.7505H62.2501V51.7505H59.2501V48.7505Z" fill="white"/>
</svg>
