<svg width="69" height="65" viewBox="0 0 69 65" fill="none" xmlns="http://www.w3.org/2000/svg">
<path d="M23.25 22.75H27.75C28.2 22.75 28.5 22.45 28.5 22V17.5C28.5 17.05 28.2 16.75 27.75 16.75H23.25C22.8 16.75 22.5 17.05 22.5 17.5V22C22.5 22.45 22.8 22.75 23.25 22.75ZM24 18.25H27V21.25H24V18.25Z" fill="white"/>
<path d="M32.25 22.75H36.75C37.2 22.75 37.5 22.45 37.5 22V17.5C37.5 17.05 37.2 16.75 36.75 16.75H32.25C31.8 16.75 31.5 17.05 31.5 17.5V22C31.5 22.45 31.8 22.75 32.25 22.75ZM33 18.25H36V21.25H33V18.25Z" fill="white"/>
<path d="M41.2501 22.75H45.7501C46.2001 22.75 46.5001 22.45 46.5001 22V17.5C46.5001 17.05 46.2001 16.75 45.7501 16.75H41.2501C40.8001 16.75 40.5001 17.05 40.5001 17.5V22C40.5001 22.45 40.8001 22.75 41.2501 22.75ZM42.0001 18.25H45.0001V21.25H42.0001V18.25Z" fill="white"/>
<path d="M23.25 31.0005H27.75C28.2 31.0005 28.5 30.7005 28.5 30.2505V25.7505C28.5 25.3005 28.2 25.0005 27.75 25.0005H23.25C22.8 25.0005 22.5 25.3005 22.5 25.7505V30.2505C22.5 30.7005 22.8 31.0005 23.25 31.0005ZM24 26.5005H27V29.5005H24V26.5005Z" fill="white"/>
<path d="M32.25 31.0005H36.75C37.2 31.0005 37.5 30.7005 37.5 30.2505V25.7505C37.5 25.3005 37.2 25.0005 36.75 25.0005H32.25C31.8 25.0005 31.5 25.3005 31.5 25.7505V30.2505C31.5 30.7005 31.8 31.0005 32.25 31.0005ZM33 26.5005H36V29.5005H33V26.5005Z" fill="white"/>
<path d="M41.2501 31.0005H45.7501C46.2001 31.0005 46.5001 30.7005 46.5001 30.2505V25.7505C46.5001 25.3005 46.2001 25.0005 45.7501 25.0005H41.2501C40.8001 25.0005 40.5001 25.3005 40.5001 25.7505V30.2505C40.5001 30.7005 40.8001 31.0005 41.2501 31.0005ZM42.0001 26.5005H45.0001V29.5005H42.0001V26.5005Z" fill="white"/>
<path d="M23.25 39.2505H27.75C28.2 39.2505 28.5 38.9505 28.5 38.5005V34.0005C28.5 33.5505 28.2 33.2505 27.75 33.2505H23.25C22.8 33.2505 22.5 33.5505 22.5 34.0005V38.5005C22.5 38.9505 22.8 39.2505 23.25 39.2505ZM24 34.7505H27V37.7505H24V34.7505Z" fill="white"/>
<path d="M32.25 39.2505H36.75C37.2 39.2505 37.5 38.9505 37.5 38.5005V34.0005C37.5 33.5505 37.2 33.2505 36.75 33.2505H32.25C31.8 33.2505 31.5 33.5505 31.5 34.0005V38.5005C31.5 38.9505 31.8 39.2505 32.25 39.2505ZM33 34.7505H36V37.7505H33V34.7505Z" fill="white"/>
<path d="M41.2501 39.2505H45.7501C46.2001 39.2505 46.5001 38.9505 46.5001 38.5005V34.0005C46.5001 33.5505 46.2001 33.2505 45.7501 33.2505H41.2501C40.8001 33.2505 40.5001 33.5505 40.5001 34.0005V38.5005C40.5001 38.9505 40.8001 39.2505 41.2501 39.2505ZM42.0001 34.7505H45.0001V37.7505H42.0001V34.7505Z" fill="white"/>
<path d="M67.5 26.5004V24.2504H68.25C68.7 24.2504 69 23.9504 69 23.5004V20.5004C69 20.0504 68.7 19.7504 68.25 19.7504H67.2L64.425 14.8754C64.275 14.6504 64.05 14.5004 63.75 14.5004H50.25V13.7504H51C51.45 13.7504 51.75 13.4504 51.75 13.0004V10.0004C51.75 9.55039 51.45 9.25039 51 9.25039H49.725L34.875 0.325391C34.65 0.175391 34.35 0.175391 34.125 0.325391L19.275 9.25039H18C17.55 9.25039 17.25 9.55039 17.25 10.0004V13.0004C17.25 13.4504 17.55 13.7504 18 13.7504H18.75V14.5004H5.25003C4.95003 14.5004 4.72503 14.6504 4.57503 14.8754L1.80003 19.7504H0.750031C0.300031 19.7504 3.05176e-05 20.0504 3.05176e-05 20.5004V23.5004C3.05176e-05 23.9504 0.300031 24.2504 0.750031 24.2504H1.50003V26.5004V58.0004V60.2504H0.750031C0.300031 60.2504 3.05176e-05 60.5504 3.05176e-05 61.0004V64.0004C3.05176e-05 64.4504 0.300031 64.7504 0.750031 64.7504H68.25C68.7 64.7504 69 64.4504 69 64.0004V61.0004C69 60.5504 68.7 60.2504 68.25 60.2504H67.5V58.0004V26.5004ZM58.5 57.2504V53.5004H61.5V57.2504H58.5ZM66 27.2504V31.0004H63V27.2504H66ZM61.5 43.0004V46.7504H58.5V43.0004H61.5ZM58.5 41.5004V37.7504H61.5V41.5004H58.5ZM63 43.0004H66V46.7504H63V43.0004ZM63 41.5004V37.7504H66V41.5004H63ZM63 36.2504V32.5004H66V36.2504H63ZM61.5 36.2504H58.5V32.5004H61.5V36.2504ZM58.5 48.2504H61.5V52.0004H58.5V48.2504ZM63 48.2504H66V52.0004H63V48.2504ZM61.5 31.0004H58.5V27.2504H61.5V31.0004ZM63 53.5004H66V57.2504H63V53.5004ZM67.5 22.7504H66.75H50.25V21.2504H67.5V22.7504ZM63.3 16.0004L65.475 19.7504H50.25V16.0004H63.3ZM34.5 1.90039L46.8 9.25039H22.2L34.5 1.90039ZM18.75 10.7504H50.25V12.2504H49.5H19.5H18.75V10.7504ZM48.75 13.7504V20.5004V23.5004V60.2504H41.25V43.0004C41.25 42.5504 40.95 42.2504 40.5 42.2504H28.5C28.05 42.2504 27.75 42.5504 27.75 43.0004V60.2504H20.25V23.5004V20.5004V13.7504H48.75ZM39.75 60.2504H29.25V43.7504H39.75V60.2504ZM5.70003 16.0004H18.75V19.7504H3.52503L5.70003 16.0004ZM1.50003 21.2504H18.75V22.7504H2.25003H1.50003V21.2504ZM10.5 27.2504V31.0004H7.50003V27.2504H10.5ZM3.00003 57.2504V53.5004H6.00003V57.2504H3.00003ZM7.50003 41.5004V37.7504H10.5V41.5004H7.50003ZM10.5 43.0004V46.7504H7.50003V43.0004H10.5ZM6.00003 41.5004H3.00003V37.7504H6.00003V41.5004ZM6.00003 43.0004V46.7504H3.00003V43.0004H6.00003ZM6.00003 48.2504V52.0004H3.00003V48.2504H6.00003ZM7.50003 48.2504H10.5V52.0004H7.50003V48.2504ZM10.5 36.2504H7.50003V32.5004H10.5V36.2504ZM6.00003 36.2504H3.00003V32.5004H6.00003V36.2504ZM7.50003 53.5004H10.5V57.2504H7.50003V53.5004ZM6.00003 31.0004H3.00003V27.2504H6.00003V31.0004ZM3.00003 58.7504H11.25C11.7 58.7504 12 58.4504 12 58.0004V26.5004C12 26.0504 11.7 25.7504 11.25 25.7504H3.00003V24.2504H18.75V60.2504H3.00003V58.7504ZM67.5 63.2504H1.50003V61.7504H2.25003H19.5H28.5H40.5H49.5H66.75H67.5V63.2504ZM50.25 60.2504V24.2504H66V25.7504H57.75C57.3 25.7504 57 26.0504 57 26.5004V58.0004C57 58.4504 57.3 58.7504 57.75 58.7504H66V60.2504H50.25Z" fill="white"/>
</svg>
