<svg width="69" height="70" viewBox="0 0 69 70" fill="none" xmlns="http://www.w3.org/2000/svg">
<path d="M41.2501 19H45.7501C46.2001 19 46.5001 18.7 46.5001 18.25V13.75C46.5001 13.3 46.2001 13 45.7501 13H41.2501C40.8001 13 40.5001 13.3 40.5001 13.75V18.25C40.5001 18.7 40.8001 19 41.2501 19ZM42.0001 14.5H45.0001V17.5H42.0001V14.5Z" fill="white"/>
<path d="M48.7501 19H53.2501C53.7001 19 54.0001 18.7 54.0001 18.25V13.75C54.0001 13.3 53.7001 13 53.2501 13H48.7501C48.3001 13 48.0001 13.3 48.0001 13.75V18.25C48.0001 18.7 48.3001 19 48.7501 19ZM49.5001 14.5H52.5001V17.5H49.5001V14.5Z" fill="white"/>
<path d="M41.2501 26.5H45.7501C46.2001 26.5 46.5001 26.2 46.5001 25.75V21.25C46.5001 20.8 46.2001 20.5 45.7501 20.5H41.2501C40.8001 20.5 40.5001 20.8 40.5001 21.25V25.75C40.5001 26.2 40.8001 26.5 41.2501 26.5ZM42.0001 22H45.0001V25H42.0001V22Z" fill="white"/>
<path d="M48.7501 26.5H53.2501C53.7001 26.5 54.0001 26.2 54.0001 25.75V21.25C54.0001 20.8 53.7001 20.5 53.2501 20.5H48.7501C48.3001 20.5 48.0001 20.8 48.0001 21.25V25.75C48.0001 26.2 48.3001 26.5 48.7501 26.5ZM49.5001 22H52.5001V25H49.5001V22Z" fill="white"/>
<path d="M35.2501 22.75H30.7501C30.3001 22.75 30.0001 23.05 30.0001 23.5V28C30.0001 28.45 30.3001 28.75 30.7501 28.75H35.2501C35.7001 28.75 36.0001 28.45 36.0001 28V23.5C36.0001 23.05 35.7001 22.75 35.2501 22.75ZM34.5001 27.25H31.5001V24.25H34.5001V27.25Z" fill="white"/>
<path d="M35.2501 30.2505H30.7501C30.3001 30.2505 30.0001 30.5505 30.0001 31.0005V35.5005C30.0001 35.9505 30.3001 36.2505 30.7501 36.2505H35.2501C35.7001 36.2505 36.0001 35.9505 36.0001 35.5005V31.0005C36.0001 30.5505 35.7001 30.2505 35.2501 30.2505ZM34.5001 34.7505H31.5001V31.7505H34.5001V34.7505Z" fill="white"/>
<path d="M59.25 28.75H63.75C64.2 28.75 64.5 28.45 64.5 28V23.5C64.5 23.05 64.2 22.75 63.75 22.75H59.25C58.8 22.75 58.5 23.05 58.5 23.5V28C58.5 28.45 58.8 28.75 59.25 28.75ZM60 24.25H63V27.25H60V24.25Z" fill="white"/>
<path d="M59.25 36.2505H63.75C64.2 36.2505 64.5 35.9505 64.5 35.5005V31.0005C64.5 30.5505 64.2 30.2505 63.75 30.2505H59.25C58.8 30.2505 58.5 30.5505 58.5 31.0005V35.5005C58.5 35.9505 58.8 36.2505 59.25 36.2505ZM60 31.7505H63V34.7505H60V31.7505Z" fill="white"/>
<path d="M68.2501 20.4999C68.7001 20.4999 69.0001 20.1999 69.0001 19.7499V16.7499C69.0001 16.2999 68.7001 15.9999 68.2501 15.9999H67.2001L65.5501 12.6999C65.4001 12.4749 65.1751 12.2499 64.8751 12.2499H57.0001V11.4999H57.7501C58.2001 11.4999 58.5001 11.1999 58.5001 10.7499V7.7499C58.5001 7.2999 58.2001 6.9999 57.7501 6.9999H57.2251L47.6251 1.0749C47.4001 0.924902 47.1001 0.924902 46.8751 1.0749L37.2751 6.9999H36.7501C36.3001 6.9999 36.0001 7.2999 36.0001 7.7499V10.7499C36.0001 11.1999 36.3001 11.4999 36.7501 11.4999H37.5001V12.2499H29.5501C29.2501 12.2499 29.0251 12.3999 28.8751 12.6999L27.3001 15.9999H26.2501C25.8001 15.9999 25.5001 16.2999 25.5001 16.7499V19.7499C25.5001 20.1999 25.8001 20.4999 26.2501 20.4999H27.0001V39.9999H26.2501C25.8001 39.9999 25.5001 40.2999 25.5001 40.7499V43.7499C25.5001 44.1999 25.8001 44.4999 26.2501 44.4999H68.2501C68.7001 44.4999 69.0001 44.1999 69.0001 43.7499V40.7499C69.0001 40.2999 68.7001 39.9999 68.2501 39.9999H67.5001V20.4999H68.2501ZM67.5001 18.9999H66.7501H57.0001V17.4999H67.5001V18.9999ZM64.4251 13.7499L65.5501 15.9999H57.0001V13.7499H64.4251ZM57.0001 9.9999H56.2501H38.2501H37.5001V8.4999H57.0001V9.9999ZM47.2501 2.6499L54.3751 6.9999H40.1251L47.2501 2.6499ZM55.5001 11.4999V16.7499V19.7499V39.9999H51.7501V30.2499C51.7501 29.7999 51.4501 29.4999 51.0001 29.4999H43.5001C43.0501 29.4999 42.7501 29.7999 42.7501 30.2499V39.9999H39.0001V19.7499V16.7499V11.4999H55.5001ZM50.2501 39.9999H44.2501V30.9999H50.2501V39.9999ZM30.0751 13.7499H37.5001V15.9999H28.9501L30.0751 13.7499ZM27.0001 17.4999H37.5001V18.9999H27.7501H27.0001V17.4999ZM28.5001 20.4999H37.5001V39.9999H28.5001V20.4999ZM67.5001 42.9999H27.0001V41.4999H27.7501H38.2501H43.5001H51.0001H56.2501H66.7501H67.5001V42.9999ZM66.0001 39.9999H57.0001V20.4999H66.0001V39.9999Z" fill="white"/>
<path d="M64.9501 49.75C63.8251 47.95 61.7251 46.975 59.6251 47.425L34.5751 52.675C34.3501 52.45 34.0501 52.225 33.8251 52L24.0001 45.25C23.1751 44.725 22.2001 44.5 21.2251 44.65L10.5001 46.6V45.25C10.5001 44.8 10.2001 44.5 9.75006 44.5H0.750061C0.300061 44.5 6.10352e-05 44.8 6.10352e-05 45.25V69.25C6.10352e-05 69.7 0.300061 70 0.750061 70H9.75006C10.2001 70 10.5001 69.7 10.5001 69.25V67.9L25.8751 69.925C26.0251 69.925 26.1751 69.925 26.3251 69.925C26.7001 69.925 27.0751 69.85 27.4501 69.775L66.0751 57.55C68.1001 56.875 69.3001 54.775 68.7751 52.75C68.4001 50.95 66.7501 49.75 64.9501 49.75ZM59.8501 48.925C61.1251 48.7 62.3251 49.075 63.2251 49.975L35.7001 54.925C35.6251 54.625 35.5501 54.325 35.4001 54.1L59.8501 48.925ZM9.00006 68.5H1.50006V46H9.00006V68.5ZM65.7001 56.125L27.0751 68.35C26.7751 68.425 26.4001 68.5 26.1001 68.425L10.5001 66.4V48.1L21.4501 46.15C22.0501 46.075 22.6501 46.15 23.1001 46.525L32.9251 53.275C33.6751 53.8 34.1251 54.55 34.2751 55.375C34.4251 56.2 34.2001 57.1 33.6751 57.85C32.7001 59.125 31.0501 59.5 29.6251 58.75L19.8751 53.575C19.5001 53.35 19.0501 53.5 18.8251 53.875C18.6001 54.25 18.7501 54.7 19.1251 54.925L28.8751 60.1C29.5501 60.475 30.3001 60.625 31.0501 60.625C32.4751 60.625 33.9001 59.95 34.8001 58.75C35.3251 58.075 35.6251 57.25 35.7001 56.425L64.2751 51.325C65.6251 51.1 66.9751 51.85 67.3501 53.2C67.7251 54.4 66.9751 55.75 65.7001 56.125Z" fill="white"/>
</svg>
