<svg width="51" height="50" viewBox="0 0 51 50" fill="none" xmlns="http://www.w3.org/2000/svg">
<path d="M18.6223 9.70751C18.5994 9.92499 18.5725 10.1407 18.5725 10.3708C18.5725 13.9841 21.5116 16.9231 25.1243 16.9231C28.7302 16.9231 31.6641 13.984 31.6641 10.3708C31.6641 10.1493 31.6383 9.92841 31.6137 9.7081C31.8432 9.69492 32.0611 9.60048 32.2163 9.4288C32.3828 9.2457 32.4641 8.9996 32.4395 8.75244C32.4395 8.75244 32.2976 7.37558 32.2942 7.36415C32.0796 5.25595 30.6392 3.50488 28.6174 2.90165C28.2774 2.8038 27.9765 2.71513 27.7218 2.64013V2.4416C27.7218 1.95634 27.328 1.56259 26.8428 1.56259H23.4264C22.9417 1.56259 22.5485 1.95517 22.5474 2.43925L22.5468 2.63613C22.2847 2.71513 21.9631 2.8124 21.6169 2.91884C19.5991 3.50712 18.157 5.2457 17.943 7.34589L17.7982 8.75019C17.7724 8.99736 17.8536 9.24345 18.0202 9.4289C18.1747 9.5999 18.3928 9.69374 18.6223 9.70751ZM25.1242 15.1651C22.481 15.1651 20.3304 13.0145 20.3304 10.3707C20.3304 10.1418 20.3464 9.92431 20.3768 9.71835H29.854C29.8884 9.93525 29.9061 10.1527 29.9061 10.3707C29.9061 13.0145 27.7607 15.1651 25.1242 15.1651ZM28.1224 4.58857C29.4518 4.98574 30.4028 6.14511 30.5453 7.54257C30.5471 7.56093 30.5923 7.96035 30.5923 7.96035H27.7218V4.47187C27.8523 4.51025 27.981 4.54794 28.1224 4.58857ZM25.9638 3.3205V7.96035H24.2916L24.303 3.3205H25.9638ZM19.6918 7.52656C19.8331 6.13935 20.7819 4.99374 22.1216 4.60234C22.2692 4.55712 22.4055 4.51533 22.5422 4.47411L22.5336 7.96035H19.6471L19.6918 7.52656Z" fill="#BF8154"/>
<path d="M28.7396 19.385H22.7846C19.9284 19.385 17.6045 21.7083 17.6045 24.565V32.2036C17.6045 32.5916 17.6051 32.9602 20.0641 34.6598C20.1963 35.5856 20.3977 38.6198 20.5487 40.8951C21.0495 48.4375 21.0495 48.4375 22.0264 48.4375H28.4288C29.3845 48.4375 29.3845 48.4375 30.0786 40.9249C30.2857 38.6805 30.561 35.7002 30.7184 34.7319C33.9196 33.0289 33.9196 32.6798 33.9196 32.2037V24.5651C33.9196 21.7084 31.5963 19.385 28.7396 19.385ZM19.3625 24.565C19.3625 23.3811 19.9674 22.3366 20.8836 21.7221L22.8642 32.6156C22.8642 32.6156 20.3165 32.6351 20.2724 32.6414C19.8872 32.3547 19.5456 32.0875 19.3625 31.9175V24.565ZM27.7283 46.6795H22.7462C22.6157 45.4937 21.9428 35.3705 21.7757 34.3736H23.6361C23.9681 34.3736 24.2794 34.2272 24.4917 33.973C24.704 33.7189 24.791 33.3859 24.732 33.062L22.5688 21.1647C22.6415 21.1602 28.7693 21.1476 28.7848 21.1476L26.6187 33.0608C26.5593 33.3858 26.6468 33.7189 26.8591 33.973C27.0708 34.2272 27.3827 34.3736 27.7141 34.3736H29.0183C28.8271 35.3653 27.8897 45.5053 27.7283 46.6795ZM32.1616 31.8488C31.9059 32.0303 31.4343 32.3135 30.9061 32.6156H28.4865L30.4825 21.6362C31.4834 22.2343 32.1615 23.317 32.1615 24.565V31.8488H32.1616Z" fill="#BF8154"/>
<path d="M8.02793 25.8766C10.7218 25.8766 12.9143 23.685 12.9143 20.9893C12.9143 18.2955 10.7218 16.1039 8.02793 16.1039C5.33408 16.1039 3.1416 18.2955 3.1416 20.9893C3.1416 23.685 5.33408 25.8766 8.02793 25.8766ZM8.02793 17.9343C9.7127 17.9343 11.0838 19.3054 11.0838 20.9892C11.0838 22.6749 9.7127 24.046 8.02793 24.046C6.34316 24.046 4.97207 22.6749 4.97207 20.9892C4.97207 19.3054 6.34316 17.9343 8.02793 17.9343Z" fill="#BF8154"/>
<path d="M10.5924 27.3485H6.3748C4.21055 27.3485 2.44971 29.1099 2.44971 31.2742V36.6832C2.44971 37.0884 2.53896 37.4054 4.2083 38.5693C4.30039 39.3121 4.43438 41.331 4.53506 42.8578C4.90586 48.4375 4.90586 48.4375 5.8375 48.4375H10.3721C11.2831 48.4375 11.2831 48.4375 11.7959 42.8831C11.9344 41.3838 12.1164 39.4118 12.2279 38.6392C14.4157 37.4684 14.5176 37.1685 14.5176 36.6833V31.2743C14.5175 29.1099 12.7566 27.3485 10.5924 27.3485ZM4.20762 36.3651V31.2743C4.20762 30.9767 4.26826 30.6934 4.37705 30.4348L5.45518 37.2109C5.40029 37.1886 4.43887 36.5631 4.20762 36.3651ZM9.65098 46.6795H6.5791C6.49043 45.7719 6.09902 39.8833 6.01885 39.0615C6.01885 39.0615 6.90068 38.931 7.0958 38.7021C7.29727 38.4664 7.38477 38.1539 7.33613 37.8426L5.95303 29.1494C6.08926 29.122 10.6278 29.1116 10.6456 29.1122L9.25674 37.8437C9.20811 38.1539 9.29512 38.4664 9.49707 38.7021C9.69219 38.931 10.4087 39.0615 10.4087 39.0615C10.308 39.8788 9.76318 45.7776 9.65098 46.6795ZM12.7596 36.2964C12.43 36.5139 11.1744 37.1782 11.1418 37.1834L12.2932 29.9472C12.5811 30.3151 12.7596 30.7724 12.7596 31.2742V36.2964Z" fill="#BF8154"/>
<path d="M42.0611 25.8766C44.755 25.8766 46.9475 23.685 46.9475 20.9893C46.9475 18.2955 44.755 16.1039 42.0611 16.1039C39.3673 16.1039 37.1748 18.2955 37.1748 20.9893C37.1748 23.685 39.3673 25.8766 42.0611 25.8766ZM42.0611 17.9343C43.7459 17.9343 45.117 19.3054 45.117 20.9892C45.117 22.6749 43.7459 24.046 42.0611 24.046C40.3764 24.046 39.0053 22.6749 39.0053 20.9892C39.0053 19.3054 40.3764 17.9343 42.0611 17.9343Z" fill="#BF8154"/>
<path d="M44.6256 27.3485H40.408C38.2437 27.3485 36.4829 29.1099 36.4829 31.2742V36.6832C36.4829 37.0884 36.5722 37.4054 38.2415 38.5693C38.3336 39.3121 38.4676 41.331 38.5683 42.8578C38.9391 48.4375 38.9391 48.4375 39.8707 48.4375H44.4053C45.3163 48.4375 45.3163 48.4375 45.8291 42.8831C45.9676 41.3838 46.1496 39.4118 46.2611 38.6392C48.4489 37.4684 48.5508 37.1685 48.5508 36.6833V31.2743C48.5507 29.1099 46.7898 27.3485 44.6256 27.3485ZM38.2408 36.3651V31.2743C38.2408 30.9767 38.3015 30.6934 38.4103 30.4348L39.4884 37.2109C39.4335 37.1886 38.4721 36.5631 38.2408 36.3651ZM43.6842 46.6795H40.6123C40.5236 45.7719 40.1322 39.8833 40.052 39.0615C40.052 39.0615 40.9339 38.931 41.129 38.7021C41.3305 38.4664 41.418 38.1539 41.3693 37.8426L39.9862 29.1494C40.1225 29.122 44.6256 29.1065 44.6256 29.1065C44.6439 29.1065 44.661 29.1117 44.6788 29.1123L43.2899 37.8438C43.2413 38.154 43.3283 38.4665 43.5303 38.7022C43.7254 38.9311 44.4419 39.0616 44.4419 39.0616C44.3412 39.8788 43.7964 45.7776 43.6842 46.6795ZM46.7928 36.2964C46.4632 36.5139 45.2076 37.1782 45.175 37.1834L46.3264 29.9472C46.6143 30.3151 46.7928 30.7724 46.7928 31.2742V36.2964Z" fill="#BF8154"/>
</svg>
