<svg width="51" height="50" viewBox="0 0 51 50" fill="none" xmlns="http://www.w3.org/2000/svg">
<path d="M47.8225 31.2047C45.1877 30.0979 42.8162 28.5219 40.7742 26.5217C39.5319 25.3037 37.3925 25.3037 36.1461 26.5217C35.5435 27.1121 34.9039 27.6533 34.2456 28.1685C33.2668 27.7669 27.7332 26.5055 27.1051 26.3107C25.8605 25.9236 24.8476 24.9763 24.3632 23.7855C28.2038 22.115 30.2394 17.7976 30.5638 13.4564V12.8063H32.1961C32.6881 12.8063 33.0862 12.4077 33.0862 11.9163C33.0862 11.4249 32.6881 11.0263 32.1961 11.0263H31.0836L30.9602 9.7747C30.6687 6.82881 28.6465 4.38242 25.8084 3.54101L24.1859 3.06006V2.45283C24.1859 1.96142 23.7878 1.56279 23.2959 1.56279H18.2303C17.7395 1.56279 17.3415 1.96025 17.3403 2.45049L17.3391 3.05429L15.6795 3.54677C12.853 4.38467 10.8325 6.8206 10.5312 9.75029L10.3997 11.0263H9.30982C8.81841 11.0263 8.41978 11.4249 8.41978 11.9163C8.41978 12.4077 8.81841 12.8063 9.30982 12.8063H10.9844L10.9856 13.5237C11.3066 17.7861 13.319 22.067 17.1155 23.7561C16.6363 24.9724 15.6704 25.9204 14.3979 26.3133C13.3167 26.6471 9.11919 27.566 9.11919 27.566C9.11861 27.566 9.11802 27.566 9.11802 27.566C8.53804 27.6946 3.43482 28.9382 2.84614 33.0614C2.49097 35.5414 2.07661 37.8951 2.07603 37.8998C2.03023 38.1582 2.1021 38.4248 2.27075 38.6265C2.43999 38.8281 2.6897 38.944 2.95279 38.944H30.2213C31.2307 40.9628 32.447 42.8762 33.8748 44.6608L35.9208 47.2174C36.5408 47.9927 37.4668 48.4377 38.4599 48.4377C39.4537 48.4377 40.3791 47.9927 40.9997 47.2174L43.0468 44.6586C45.7291 41.3048 47.6875 37.5105 48.8673 33.3814C49.1205 32.4957 48.6709 31.5604 47.8225 31.2047ZM32.465 29.4258C31.396 30.1055 30.2776 30.7093 29.0967 31.2047C28.7589 31.3473 28.5081 31.597 28.3163 31.8832L29.1084 28.6574C29.1917 28.6771 32.1828 29.3418 32.465 29.4258ZM25.3025 5.24677C27.4435 5.88183 28.9686 7.72793 29.1888 9.95068L29.2955 11.0262H24.1859V4.91591L25.3025 5.24677ZM22.4058 3.34277V11.0262H19.1018L19.1186 3.34277H22.4058ZM12.3021 9.9333C12.5293 7.72217 14.0538 5.88535 16.1861 5.25254L17.3351 4.91181L17.3218 11.0261H12.1897L12.3021 9.9333ZM12.7633 13.4563V12.8062H28.7849L28.7861 13.3892C28.4361 18.0433 25.8228 22.7379 20.7736 22.7379C15.7244 22.7379 13.111 18.0432 12.7633 13.4563ZM20.7735 24.5179C21.4421 24.5179 22.0691 24.442 22.6677 24.3197C22.9922 25.1808 23.4981 25.941 24.143 26.5628L20.7973 29.2798L17.3977 26.5338C18.0282 25.9155 18.5212 25.1634 18.8376 24.3128C19.4484 24.4402 20.0892 24.5179 20.7735 24.5179ZM12.4035 28.658L14.5683 37.1637H8.92857V29.4617C9.24615 29.3638 11.6079 28.8417 12.4035 28.658ZM4.60767 33.3139C4.82144 31.8189 6.00064 30.8263 7.14849 30.2022V37.1637H4.00738C4.16265 36.2308 4.39673 34.7891 4.60767 33.3139ZM16.4051 37.1637L14.1326 28.2351C14.4246 28.1586 15.584 27.7669 15.8947 27.6093L20.2399 31.1178C20.4027 31.2487 20.6009 31.3147 20.7991 31.3147C20.9978 31.3147 21.1965 31.2487 21.36 31.1154L25.6531 27.6295C25.9492 27.7767 27.0837 28.1562 27.3793 28.2333L25.1873 37.1637H16.4051ZM27.02 37.1637C27.02 37.1637 28.0236 33.2797 28.0531 33.3822C28.4234 34.6784 28.8793 35.937 29.4008 37.1637H27.02ZM41.6567 43.5456L39.6095 46.1044C39.048 46.8066 37.8723 46.8066 37.3103 46.1044L35.2649 43.5478C32.7304 40.3807 30.8796 36.795 29.7869 32.8455C33.6543 31.2742 36.6602 28.5102 37.3926 27.7928C37.68 27.5111 38.059 27.3559 38.4611 27.3559C38.8621 27.3559 39.241 27.5111 39.5279 27.7928C41.7321 29.9506 44.2903 31.6507 47.1551 32.8931C46.0407 36.7939 44.1906 40.3772 41.6567 43.5456Z" fill="#BF8154"/>
<path d="M35.6229 36.1658C35.2752 35.8182 34.712 35.8182 34.3643 36.1658C34.0166 36.5135 34.0166 37.0767 34.3643 37.4244L36.7603 39.8198C36.959 40.0203 37.2244 40.1304 37.5065 40.1304C37.7888 40.1304 38.0535 40.0203 38.2506 39.8221L43.1613 34.9107C43.509 34.5631 43.509 33.9999 43.1613 33.6521C42.8143 33.3045 42.2505 33.3045 41.9027 33.6521L37.5065 38.0489L35.6229 36.1658Z" fill="#BF8154"/>
</svg>
