<svg width="51" height="50" viewBox="0 0 51 50" fill="none" xmlns="http://www.w3.org/2000/svg">
<path d="M22.3328 31.1966H40.9239C42.5532 31.1966 43.8796 29.8708 43.8796 28.2414V19.836H47.5597C48.1009 19.836 48.5795 19.4941 48.8073 18.9447C49.0535 18.3514 48.9434 17.6769 48.5355 17.269L33.5678 2.19298C32.752 1.37824 31.4488 1.35392 30.6584 2.14201L15.697 17.2945C15.2903 17.7025 15.1789 18.3665 15.42 18.9483C15.6472 19.4964 16.1264 19.836 16.6711 19.836H19.3766V28.2414C19.3765 29.8708 20.7029 31.1966 22.3328 31.1966ZM34.1037 29.4165H29.9503V22.6266C29.9503 22.4632 30.0836 22.3299 30.247 22.3299H33.8072C33.9705 22.3299 34.1038 22.4632 34.1038 22.6266V29.4165H34.1037ZM42.0995 28.2414C42.0995 28.8893 41.5717 29.4165 40.9239 29.4165H35.8838V22.6266C35.8838 21.4816 34.9521 20.5498 33.8071 20.5498H30.2469C29.1019 20.5498 28.1701 21.4816 28.1701 22.6266V29.4165H22.3327C21.6843 29.4165 21.1565 28.8892 21.1565 28.2414V19.2194L32.0675 8.21456L42.2831 18.4302C42.1753 18.5774 42.0994 18.7494 42.0994 18.9459V28.2414H42.0995ZM31.9204 3.39708C32.0206 3.29855 32.2032 3.34728 32.3075 3.44923L46.8087 18.0559H44.426L33.3261 6.95597C32.6586 6.28956 31.5721 6.28956 30.904 6.95597L19.8041 18.0559H17.4469L31.9204 3.39708Z" fill="#BF8154"/>
<path d="M3.19014 1.5625C2.56836 1.5625 2.0625 2.06777 2.0625 2.69014V47.3111C2.0625 47.9322 2.56836 48.4375 3.19014 48.4375H11.022C11.6438 48.4375 12.1496 47.9322 12.1496 47.311V2.69014C12.1496 2.06777 11.6438 1.5625 11.022 1.5625H3.19014ZM3.84258 46.6574V3.34258H10.3694V7.49609H7.69941C7.20801 7.49609 6.80938 7.89473 6.80938 8.38613C6.80938 8.87754 7.20801 9.27617 7.69941 9.27617H10.3695V12.243H7.69941C7.20801 12.243 6.80938 12.6416 6.80938 13.133C6.80938 13.6244 7.20801 14.023 7.69941 14.023H10.3695V16.9898H7.69941C7.20801 16.9898 6.80938 17.3885 6.80938 17.8799C6.80938 18.3713 7.20801 18.7699 7.69941 18.7699H10.3695V21.7367H7.69941C7.20801 21.7367 6.80938 22.1354 6.80938 22.6268C6.80938 23.1182 7.20801 23.5168 7.69941 23.5168H10.3695V26.4836H7.69941C7.20801 26.4836 6.80938 26.8822 6.80938 27.3736C6.80938 27.865 7.20801 28.2637 7.69941 28.2637H10.3695V31.2305H7.69941C7.20801 31.2305 6.80938 31.6291 6.80938 32.1205C6.80938 32.6119 7.20801 33.0105 7.69941 33.0105H10.3695V35.9773H7.69941C7.20801 35.9773 6.80938 36.376 6.80938 36.8674C6.80938 37.3588 7.20801 37.7574 7.69941 37.7574H10.3695V40.7242H7.69941C7.20801 40.7242 6.80938 41.1229 6.80938 41.6143C6.80938 42.1057 7.20801 42.5043 7.69941 42.5043H10.3695V46.6578H3.84258V46.6574Z" fill="#BF8154"/>
<path d="M47.6919 39.5372H24.2295C23.9745 39.5372 16.9928 42.8736 16.9928 42.8736C16.5675 43.0858 16.3032 43.5122 16.3032 43.9885C16.3032 44.4636 16.5675 44.8901 16.9922 45.1022C16.9922 45.1022 23.9751 48.4374 24.2295 48.4374H47.6919C48.3785 48.4374 48.9377 47.8788 48.9377 47.1916V40.7842C48.9377 40.097 48.3785 39.5372 47.6919 39.5372ZM18.7438 43.9885L22.9831 41.8677V46.1081L18.7438 43.9885ZM24.7632 41.3173H42.8014V46.6575H24.7632V41.3173ZM47.1576 46.6574H44.5813V41.3172H47.1576V46.6574Z" fill="#BF8154"/>
</svg>
