<svg width="90" height="90" viewBox="0 0 90 90" fill="none" xmlns="http://www.w3.org/2000/svg">
<path fill-rule="evenodd" clip-rule="evenodd" d="M13 45C13 27.3269 27.3269 13 45 13C50.1119 13 54.9392 14.1974 59.2212 16.3253C60.0867 16.7555 61.137 16.4025 61.5672 15.537C61.9973 14.6715 61.6443 13.6212 60.7788 13.191C56.0236 10.8279 50.6644 9.5 45 9.5C25.3939 9.5 9.5 25.3939 9.5 45C9.5 64.6061 25.3939 80.5 45 80.5C64.6061 80.5 80.5 64.6061 80.5 45C80.5 43.6681 80.4266 42.3527 80.2834 41.0577C80.1772 40.0971 79.3124 39.4044 78.3517 39.5106C77.3911 39.6168 76.6984 40.4816 76.8046 41.4423C76.9337 42.6098 77 43.7968 77 45C77 62.6731 62.6731 77 45 77C27.3269 77 13 62.6731 13 45ZM79.9874 19.9874C80.6709 19.304 80.6709 18.196 79.9874 17.5126C79.304 16.8291 78.196 16.8291 77.5126 17.5126L45 50.0251L34.9874 40.0126C34.304 39.3291 33.196 39.3291 32.5126 40.0126C31.8291 40.696 31.8291 41.804 32.5126 42.4874L43.7626 53.7374C44.0908 54.0656 44.5359 54.25 45 54.25C45.4641 54.25 45.9092 54.0656 46.2374 53.7374L79.9874 19.9874Z" fill="#F4BE96"/>
</svg>
