<svg width="14" height="14" viewBox="0 0 14 14" fill="none" xmlns="http://www.w3.org/2000/svg">
<g clip-path="url(#clip0_644_2311)">
<path d="M7.00007 13.5335V6.0668C7.00007 5.57173 7.19674 5.09693 7.5468 4.74686C7.89687 4.3968 8.37167 4.20013 8.86674 4.20013H9.3334M4.66674 7.93346H9.3334M7.00007 13.5335C6.1421 13.5335 5.29253 13.3645 4.49987 13.0361C3.70721 12.7078 2.98698 12.2266 2.3803 11.6199C1.77363 11.0132 1.29239 10.293 0.964056 9.50033C0.635726 8.70767 0.466736 7.8581 0.466736 7.00013C0.466736 6.14216 0.635726 5.29259 0.964056 4.49993C1.29239 3.70727 1.77363 2.98704 2.3803 2.38037C2.98698 1.77369 3.70721 1.29245 4.49987 0.964117C5.29253 0.635787 6.1421 0.466797 7.00007 0.466797C8.73282 0.466797 10.3946 1.15513 11.6198 2.38037C12.8451 3.6056 13.5334 5.26738 13.5334 7.00013C13.5334 8.73288 12.8451 10.3947 11.6198 11.6199C10.3946 12.8451 8.73282 13.5335 7.00007 13.5335Z" stroke="white" stroke-width="1.15"/>
</g>
<defs>
<clipPath id="clip0_644_2311">
<rect width="14" height="14" fill="white"/>
</clipPath>
</defs>
</svg>
