<svg width="14" height="14" viewBox="0 0 14 14" fill="none" xmlns="http://www.w3.org/2000/svg">
<g clip-path="url(#clip0_644_2309)">
<path d="M10.2668 3.2668H11.2001M4.20013 0.466797H9.80013C10.7903 0.466797 11.7399 0.860129 12.44 1.56027C13.1401 2.2604 13.5335 3.20999 13.5335 4.20013V9.80013C13.5335 10.7903 13.1401 11.7399 12.44 12.44C11.7399 13.1401 10.7903 13.5335 9.80013 13.5335H4.20013C3.20999 13.5335 2.2604 13.1401 1.56027 12.44C0.860129 11.7399 0.466797 10.7903 0.466797 9.80013V4.20013C0.466797 3.20999 0.860129 2.2604 1.56027 1.56027C2.2604 0.860129 3.20999 0.466797 4.20013 0.466797V0.466797ZM7.00013 9.80013C6.25752 9.80013 5.54533 9.50513 5.02023 8.98003C4.49513 8.45493 4.20013 7.74274 4.20013 7.00013C4.20013 6.25752 4.49513 5.54533 5.02023 5.02023C5.54533 4.49513 6.25752 4.20013 7.00013 4.20013C7.74274 4.20013 8.45493 4.49513 8.98003 5.02023C9.50513 5.54533 9.80013 6.25752 9.80013 7.00013C9.80013 7.74274 9.50513 8.45493 8.98003 8.98003C8.45493 9.50513 7.74274 9.80013 7.00013 9.80013Z" stroke="white" stroke-width="1.15"/>
</g>
<defs>
<clipPath id="clip0_644_2309">
<rect width="14" height="14" fill="white"/>
</clipPath>
</defs>
</svg>
