<svg width="193" height="136" viewBox="0 0 193 136" fill="none" xmlns="http://www.w3.org/2000/svg">
<path fill-rule="evenodd" clip-rule="evenodd" d="M184.515 120.899C187.838 120.899 190.791 119.357 192.452 117.138L189.744 114.61C188.33 116.275 186.668 117.076 184.761 117.076C183.223 117.076 181.993 116.583 180.947 115.536C179.962 114.548 179.409 113.254 179.409 111.713C179.409 110.11 179.962 108.815 181.008 107.767C182.054 106.718 183.285 106.225 184.761 106.225C186.668 106.225 188.268 107.089 189.622 108.692L192.268 106.041C190.607 103.821 187.776 102.341 184.577 102.341C181.993 102.341 179.778 103.266 177.993 104.992C176.209 106.78 175.286 109 175.286 111.713C175.286 114.425 176.148 116.644 177.932 118.372C179.716 120.098 181.869 120.899 184.515 120.899ZM164.088 117.015C162.612 117.015 161.381 116.46 160.397 115.474C159.413 114.487 158.921 113.192 158.921 111.713C158.921 110.172 159.413 108.877 160.397 107.89C161.381 106.842 162.612 106.349 164.088 106.349C165.504 106.349 166.734 106.842 167.78 107.89C168.765 108.877 169.257 110.172 169.257 111.713C169.318 113.192 168.826 114.487 167.78 115.474C166.795 116.46 165.565 117.015 164.088 117.015ZM164.088 102.341C161.75 102.341 159.782 103.081 158.12 104.499C156.398 105.855 155.352 107.643 154.921 109.802H152.706V102.711H148.645V120.653H152.706V113.685H154.921C155.352 115.781 156.398 117.57 158.12 118.926C159.782 120.282 161.75 120.961 164.088 120.961C166.734 120.961 168.949 120.036 170.734 118.248C172.579 116.46 173.441 114.303 173.441 111.713C173.441 109.061 172.579 106.904 170.734 105.116C168.949 103.266 166.734 102.341 164.088 102.341ZM130.311 120.899C132.403 120.899 133.88 119.974 134.926 118.186C135.418 117.446 135.787 116.522 136.094 115.35L136.403 113.747C136.525 113.316 136.648 112.699 136.71 111.959C136.833 111.158 136.894 110.603 136.956 110.233L137.14 108.322L137.325 106.595H140.832V120.653H144.831V102.711H133.756L133.387 106.164C133.203 107.705 133.08 108.877 133.018 109.493C132.956 110.172 132.833 111.035 132.711 112.021C132.403 114.117 132.033 115.166 131.48 116.09C130.926 117.015 130.065 117.446 129.019 117.446H128.527L129.265 120.838C129.634 120.899 130.003 120.899 130.311 120.899ZM115.483 120.653V106.534H122.497V120.653H126.497V102.711H111.484V120.653H115.483ZM86.4431 120.653V111.158L91.3653 118.124H92.7801L97.7022 111.158V120.653H101.701V102.711H98.8101L92.1034 112.452L85.3359 102.711H82.5053V120.653H86.4431ZM68.6627 120.899C70.0775 120.899 71.4309 120.344 72.2922 119.666C72.6613 119.357 73.092 118.864 73.5224 118.248C73.9531 117.631 74.323 117.138 74.5076 116.644C74.7534 116.213 75.0611 115.659 75.4302 114.918C76.4146 112.884 77.3987 110.541 78.9374 106.965L80.8444 102.711H76.1685L73.4001 110.294L70.3236 102.711H65.5862L71.2463 114.734C70.3852 116.522 69.2778 117.446 67.986 117.446C67.4932 117.446 66.9395 117.323 66.5088 117.138L66.2012 120.344C66.878 120.714 67.6778 120.899 68.6627 120.899ZM50.3894 120.653L59.2492 109.554V120.653H63.1862V102.711H60.6025L51.8657 113.932V102.711H47.8664V120.653H50.3894ZM36.1154 111.096V106.411H39.0073C40.4837 106.411 41.4065 107.397 41.4065 108.692C41.4065 109.986 40.4837 111.096 38.8228 111.096H36.1154ZM32.116 102.711V120.653H36.1154V114.672H38.6997C40.9758 114.672 42.6983 114.117 43.8063 113.007C44.9137 111.898 45.4672 110.48 45.4672 108.753C45.4672 107.027 44.9752 105.609 43.8678 104.437C42.7606 103.266 41.1604 102.711 38.945 102.711H32.116ZM20.7955 120.653H24.7948V106.534H29.8398V102.711H15.6889V106.534H20.7955V120.653ZM10.3978 113.5H6.52145L8.42925 107.828L10.3978 113.5ZM16.7961 120.653L10.2132 102.711H6.70601L-0.00012207 120.653H4.18304L5.41407 117.015H11.4435L12.6124 120.653H16.7961Z" fill="white"/>
<path fill-rule="evenodd" clip-rule="evenodd" d="M134.991 135.942C136.199 135.942 137.292 135.366 137.924 134.502L137.234 133.983C136.717 134.674 135.911 135.078 135.049 135.078C134.301 135.078 133.726 134.847 133.208 134.386C132.749 133.926 132.518 133.291 132.518 132.542C132.518 131.793 132.749 131.216 133.265 130.698C133.726 130.179 134.301 129.948 135.049 129.948C135.911 129.948 136.659 130.352 137.234 131.102L137.867 130.525C137.579 130.121 137.234 129.776 136.717 129.488C136.199 129.2 135.624 129.084 135.049 129.084C134.071 129.084 133.265 129.43 132.576 130.064C131.885 130.698 131.598 131.562 131.598 132.542C131.598 133.579 131.885 134.386 132.576 135.021C133.208 135.654 134.013 135.942 134.991 135.942ZM129.297 133.291H127.399L128.377 130.755L129.297 133.291ZM131.253 135.885L128.608 129.2H128.09L125.444 135.885H126.422L127.054 134.155H129.585L130.275 135.885H131.253ZM121.187 135.021V132.715H122.855C123.66 132.715 124.178 133.233 124.178 133.867C124.178 134.214 124.063 134.444 123.833 134.674C123.603 134.905 123.258 135.021 122.913 135.021H121.187ZM122.798 130.064C123.43 130.064 123.833 130.467 123.833 130.928C123.833 131.447 123.43 131.908 122.741 131.908H121.187V130.064H122.798ZM123.833 132.196C124.409 132.023 124.753 131.447 124.753 130.871C124.753 130.41 124.581 130.064 124.236 129.718C123.948 129.372 123.488 129.2 122.913 129.2H120.267V135.885H123.028C123.66 135.885 124.178 135.654 124.523 135.309C124.926 134.905 125.098 134.444 125.098 133.926C125.098 133.176 124.638 132.426 123.833 132.196ZM115.896 132.542C115.896 133.291 115.666 133.867 115.148 134.386C114.689 134.847 114.056 135.078 113.366 135.078C112.676 135.078 112.043 134.847 111.583 134.386C111.123 133.867 110.893 133.291 110.893 132.542C110.893 131.793 111.123 131.216 111.583 130.698C112.101 130.237 112.676 129.948 113.366 129.948C114.056 129.948 114.689 130.237 115.148 130.698C115.666 131.216 115.896 131.793 115.896 132.542ZM109.915 132.6C109.915 133.522 110.26 134.329 110.893 134.962C111.583 135.654 112.388 136 113.366 136C114.286 136 115.148 135.654 115.781 134.962C116.471 134.271 116.816 133.464 116.816 132.542C116.816 131.562 116.471 130.755 115.781 130.121C115.148 129.43 114.286 129.084 113.366 129.084C112.446 129.084 111.64 129.43 110.95 130.121C110.26 130.755 109.915 131.62 109.915 132.6ZM101.633 135.885L105.543 130.871V135.885H106.464V129.2H105.946L102.035 134.214V129.2H101.115V135.885H101.633ZM103.875 128.853C104.565 128.853 105.141 128.565 105.658 127.931L105.141 127.413C104.796 127.874 104.336 128.162 103.875 128.162C103.415 128.162 102.956 127.874 102.553 127.413L102.093 127.931C102.553 128.565 103.186 128.853 103.875 128.853ZM98.9294 132.542C98.9294 133.291 98.6992 133.867 98.2395 134.386C97.7219 134.847 97.1466 135.078 96.4569 135.078C95.7083 135.078 95.1332 134.847 94.6735 134.386C94.1559 133.867 93.9257 133.291 93.9257 132.542C93.9257 131.793 94.1559 131.216 94.6735 130.698C95.1332 130.237 95.7663 129.948 96.4569 129.948C97.1466 129.948 97.7219 130.237 98.2395 130.698C98.6992 131.216 98.9294 131.793 98.9294 132.542ZM93.0058 132.6C93.0058 133.522 93.2932 134.329 93.9831 134.962C94.6162 135.654 95.4208 136 96.3988 136C97.3768 136 98.1821 135.654 98.872 134.962C99.5624 134.271 99.9073 133.464 99.9073 132.542C99.9073 131.562 99.5624 130.755 98.872 130.121C98.1821 129.43 97.3768 129.084 96.4569 129.084C95.4788 129.084 94.6735 129.43 93.9831 130.121C93.3506 130.755 93.0058 131.62 93.0058 132.6ZM89.9001 135.885H90.8202V130.064H92.7755V129.2H87.9447V130.064H89.9001V135.885ZM86.7938 132.542C86.7938 133.291 86.5638 133.867 86.0459 134.386C85.5863 134.847 85.0112 135.078 84.2633 135.078C83.5729 135.078 82.9404 134.847 82.4802 134.386C82.0205 133.867 81.7903 133.291 81.7903 132.542C81.7903 131.793 82.0205 131.216 82.4802 130.698C82.9978 130.237 83.5729 129.948 84.2633 129.948C84.9532 129.948 85.5863 130.237 86.0459 130.698C86.5638 131.216 86.7938 131.793 86.7938 132.542ZM80.813 132.6C80.813 133.522 81.1578 134.329 81.7903 134.962C82.4802 135.654 83.2852 136 84.2633 136C85.1834 136 86.0459 135.654 86.6792 134.962C87.3696 134.271 87.7144 133.464 87.7144 132.542C87.7144 131.562 87.3696 130.755 86.6792 130.121C86.0459 129.43 85.2406 129.084 84.2633 129.084C83.3434 129.084 82.5381 129.43 81.8477 130.121C81.1578 130.755 80.813 131.62 80.813 132.6ZM76.3263 135.021V132.542H77.7646C78.742 132.542 79.2024 133.119 79.2024 133.81C79.2024 134.502 78.6274 135.021 77.7067 135.021H76.3263ZM76.3263 131.678V130.064H79.5472V129.2H75.4063V135.885H77.8221C78.5692 135.885 79.145 135.654 79.4899 135.25C79.8923 134.847 80.1223 134.386 80.1223 133.81C80.1223 133.349 79.9495 132.715 79.4326 132.254C79.087 131.908 78.512 131.678 77.7646 131.678H76.3263ZM72.5302 133.291H70.5748L71.5529 130.755L72.5302 133.291ZM74.4856 135.885L71.8403 129.2H71.3226L68.6194 135.885H69.5974L70.2873 134.155H72.8178L73.5083 135.885H74.4856ZM65.7433 136C66.4912 136 67.1236 135.769 67.5847 135.424C68.0443 135.078 68.2171 134.617 68.2171 133.983C68.2171 133.176 67.7567 132.542 66.8942 132.369V132.312C67.6421 132.081 68.0443 131.562 68.0443 130.871C68.0443 130.352 67.8721 129.948 67.4693 129.603C67.0662 129.257 66.5486 129.084 65.9161 129.084C65.1108 129.084 64.2481 129.372 63.7305 129.833L64.1335 130.525C64.7086 130.121 65.2836 129.891 65.8587 129.891C66.6065 129.891 67.1816 130.295 67.1236 130.928C67.1236 131.562 66.5486 132.023 65.6859 132.023H64.7086V132.83H65.8013C66.7214 132.83 67.2964 133.291 67.2964 133.983C67.2964 134.674 66.7214 135.136 65.8013 135.136C65.1682 135.136 64.5358 134.962 63.9033 134.559L63.5003 135.309C64.1909 135.769 64.996 136 65.7433 136ZM57.9217 135.942C59.1872 135.942 60.2227 135.366 60.855 134.502L60.2227 133.983C59.6475 134.674 58.8996 135.078 57.9797 135.078C57.231 135.078 56.656 134.847 56.1963 134.386C55.6787 133.926 55.4484 133.291 55.4484 132.542C55.4484 131.793 55.6787 131.216 56.1963 130.698C56.656 130.179 57.2892 129.948 57.9797 129.948C58.8996 129.948 59.5895 130.352 60.1645 131.102L60.855 130.525C60.5676 130.121 60.1645 129.776 59.6475 129.488C59.1298 129.2 58.5547 129.084 57.9797 129.084C57.0016 129.084 56.1963 129.43 55.5059 130.064C54.8734 130.698 54.5286 131.562 54.5286 132.542C54.5286 133.579 54.8734 134.386 55.5059 135.021C56.1963 135.654 57.0016 135.942 57.9217 135.942Z" fill="white"/>
<path fill-rule="evenodd" clip-rule="evenodd" d="M117.64 49.375H74.8668L96.2533 82.2173L117.64 49.375ZM90.1432 77.0398L71.6451 48.7067L46.9256 36.9615L90.1432 77.0398ZM145.581 36.9615L120.806 48.7067L102.364 77.0398L145.581 36.9615ZM128.805 10.076L112.196 2.3384H80.3107L63.6458 10.076L64.7573 14.0275L80.3107 21.3195H112.196L127.75 14.0275L128.805 10.076ZM131.472 8.73905L131.527 8.79522H131.583L150.192 23.0449L150.581 23.6018L153.692 32.397L153.636 32.4523L153.747 32.5079L152.747 33.4546L97.0317 85.1673L96.2533 85.9466L95.4758 85.1673L39.76 33.4546L38.7045 32.5079L38.871 32.4523L38.8158 32.397L41.8709 23.6018L42.2593 23.0449L60.9239 8.79522H60.9799L61.0352 8.73905L61.8128 8.40606L79.5331 0.111534L80.0329 0H112.474L112.973 0.111534L130.694 8.40606L131.472 8.73905ZM130.083 14.4174L150.359 29.9479L148.526 24.715L130.917 11.2443L130.083 14.4174ZM113.862 23.1011L120.751 46.202L149.748 32.397L128.583 16.2543L113.862 23.1011ZM80.9219 23.6573L73.9786 46.8697H118.529L111.585 23.6573H80.9219ZM63.8684 16.2543L42.7599 32.397L71.7564 46.202L78.6443 23.1011L63.8684 16.2543ZM61.5908 11.2443L43.9819 24.715L42.1488 29.9479L62.4238 14.4174L61.5908 11.2443Z" fill="white"/>
</svg>
