<svg width="75" height="53" viewBox="0 0 75 53" fill="none" xmlns="http://www.w3.org/2000/svg">
<path fill-rule="evenodd" clip-rule="evenodd" d="M71.9071 47.1155C73.202 47.1155 74.3527 46.5146 75 45.6498L73.9449 44.6645C73.3937 45.3134 72.7462 45.6255 72.0028 45.6255C71.4037 45.6255 70.9242 45.4336 70.5164 45.0252C70.1328 44.6405 69.917 44.136 69.917 43.5355C69.917 42.9108 70.1328 42.4063 70.5404 41.9976C70.9479 41.589 71.4277 41.3968 72.0028 41.3968C72.7462 41.3968 73.3698 41.7334 73.8972 42.358L74.9284 41.325C74.2811 40.4598 73.178 39.8833 71.9311 39.8833C70.9242 39.8833 70.0609 40.2436 69.3653 40.9163C68.6701 41.6132 68.3106 42.4781 68.3106 43.5355C68.3106 44.5924 68.6465 45.4573 69.3417 46.1305C70.0369 46.8032 70.876 47.1155 71.9071 47.1155ZM63.9465 45.6017C63.3714 45.6017 62.8916 45.3855 62.5081 45.0012C62.1245 44.6164 61.9327 44.112 61.9327 43.5355C61.9327 42.9348 62.1245 42.4303 62.5081 42.0457C62.8916 41.6373 63.3714 41.4451 63.9465 41.4451C64.4982 41.4451 64.9776 41.6373 65.3852 42.0457C65.7691 42.4303 65.9609 42.9348 65.9609 43.5355C65.9848 44.112 65.793 44.6164 65.3852 45.0012C65.0016 45.3855 64.5221 45.6017 63.9465 45.6017ZM63.9465 39.8833C63.0355 39.8833 62.2683 40.1716 61.6208 40.7241C60.9495 41.2526 60.5419 41.9496 60.3742 42.7907H59.5108V40.0275H57.9283V47.0194H59.5108V44.3042H60.3742C60.5419 45.121 60.9495 45.818 61.6208 46.3465C62.2683 46.8749 63.0355 47.1395 63.9465 47.1395C64.9776 47.1395 65.8407 46.7791 66.5365 46.0822C67.2554 45.3855 67.5913 44.5447 67.5913 43.5355C67.5913 42.5021 67.2554 41.6613 66.5365 40.9646C65.8407 40.2436 64.9776 39.8833 63.9465 39.8833ZM50.7833 47.1155C51.5984 47.1155 52.1741 46.7549 52.5816 46.0581C52.7734 45.7699 52.9172 45.4095 53.0371 44.9528L53.1572 44.3282C53.2049 44.16 53.2529 43.9198 53.2769 43.6316C53.3251 43.3192 53.3488 43.103 53.3728 42.9588L53.4447 42.2139L53.5169 41.5412H54.8833V47.0194H56.4419V40.0275H52.1259L51.982 41.3731C51.9103 41.9736 51.8624 42.4303 51.8382 42.6703C51.8142 42.9348 51.7663 43.2712 51.7186 43.6556C51.5984 44.4724 51.4546 44.881 51.2388 45.2414C51.0231 45.6017 50.6874 45.7699 50.2799 45.7699H50.0881L50.3755 47.0915C50.5196 47.1155 50.6634 47.1155 50.7833 47.1155ZM45.0048 47.0194V41.5172H47.7382V47.0194H49.297V40.0275H43.4463V47.0194H45.0048ZM33.6876 47.0194V43.3192L35.6058 46.0341H36.1572L38.0754 43.3192V47.0194H39.6339V40.0275H38.5071L35.8935 43.8237L33.2561 40.0275H32.153V47.0194H33.6876ZM26.7584 47.1155C27.3098 47.1155 27.8372 46.899 28.1729 46.635C28.3167 46.5146 28.4846 46.3224 28.6523 46.0822C28.8201 45.842 28.9643 45.6498 29.0362 45.4573C29.1321 45.2892 29.2519 45.0732 29.3958 44.7846C29.7794 43.9919 30.1629 43.079 30.7626 41.6853L31.5057 40.0275H29.6835L28.6047 42.9826L27.4057 40.0275H25.5595L27.7653 44.7129C27.4297 45.4095 26.9981 45.7699 26.4947 45.7699C26.3027 45.7699 26.0869 45.7219 25.9191 45.6498L25.7992 46.899C26.0629 47.0431 26.3746 47.1155 26.7584 47.1155ZM19.6372 47.0194L23.0899 42.6943V47.0194H24.6242V40.0275H23.6173L20.2125 44.4003V40.0275H18.6539V47.0194H19.6372ZM14.0745 43.2952V41.4692H15.2015C15.7768 41.4692 16.1365 41.8535 16.1365 42.358C16.1365 42.8625 15.7768 43.2952 15.1296 43.2952H14.0745ZM12.5159 40.0275V47.0194H14.0745V44.6888H15.0816C15.9686 44.6888 16.6399 44.4724 17.0717 44.0399C17.5033 43.6075 17.7189 43.0549 17.7189 42.3821C17.7189 41.7093 17.5272 41.1568 17.0957 40.7001C16.6642 40.2436 16.0406 40.0275 15.1772 40.0275H12.5159ZM8.10418 47.0194H9.66277V41.5172H11.6289V40.0275H6.11412V41.5172H8.10418V47.0194ZM4.05211 44.2321H2.54148L3.28497 42.0217L4.05211 44.2321ZM6.54559 47.0194L3.98019 40.0275H2.61341L-3.05176e-05 47.0194H1.63018L2.10992 45.6017H4.45963L4.91516 47.0194H6.54559Z" fill="#BF8154"/>
<path fill-rule="evenodd" clip-rule="evenodd" d="M52.6072 52.9779C53.0778 52.9779 53.5037 52.7533 53.7502 52.4165L53.4813 52.2143C53.2796 52.4837 52.9657 52.6411 52.6296 52.6411C52.3381 52.6411 52.114 52.5512 51.9123 52.3715C51.7331 52.192 51.6434 51.9447 51.6434 51.6529C51.6434 51.3609 51.7331 51.1362 51.9346 50.9341C52.114 50.7319 52.3381 50.642 52.6296 50.642C52.9657 50.642 53.2572 50.7994 53.4813 51.0914L53.7278 50.8666C53.6157 50.7095 53.4813 50.5748 53.2796 50.4625C53.0778 50.3502 52.8537 50.3051 52.6296 50.3051C52.2484 50.3051 51.9346 50.4401 51.6658 50.6871C51.3967 50.9341 51.2846 51.2709 51.2846 51.6529C51.2846 52.057 51.3967 52.3715 51.6658 52.6187C51.9123 52.8657 52.2261 52.9779 52.6072 52.9779ZM50.3882 51.9447H49.6485L50.0296 50.9565L50.3882 51.9447ZM51.1502 52.9556L50.1193 50.3502H49.9175L48.8864 52.9556H49.2676L49.5141 52.2816H50.5002L50.7693 52.9556H51.1502ZM47.2277 52.6187V51.7201H47.8777C48.1914 51.7201 48.3932 51.9222 48.3932 52.1692C48.3932 52.3042 48.3483 52.3941 48.2588 52.4837C48.1691 52.5736 48.0347 52.6187 47.9 52.6187H47.2277ZM47.8553 50.6871C48.1018 50.6871 48.2588 50.8441 48.2588 51.024C48.2588 51.2261 48.1018 51.4056 47.8329 51.4056H47.2277V50.6871H47.8553ZM48.2588 51.5179C48.483 51.4507 48.6173 51.2261 48.6173 51.0015C48.6173 50.8218 48.55 50.6871 48.4156 50.5524C48.3035 50.4174 48.1242 50.3502 47.9 50.3502H46.8692V52.9556H47.945C48.1914 52.9556 48.3932 52.8657 48.5276 52.731C48.6847 52.5736 48.7517 52.3941 48.7517 52.192C48.7517 51.8999 48.5724 51.6078 48.2588 51.5179ZM45.1657 51.6529C45.1657 51.9447 45.0759 52.1692 44.8742 52.3715C44.6951 52.5512 44.4486 52.6411 44.1795 52.6411C43.9107 52.6411 43.664 52.5512 43.4848 52.3715C43.3054 52.1692 43.2157 51.9447 43.2157 51.6529C43.2157 51.3609 43.3054 51.1362 43.4848 50.9341C43.6866 50.7543 43.9107 50.642 44.1795 50.642C44.4486 50.642 44.6951 50.7543 44.8742 50.9341C45.0759 51.1362 45.1657 51.3609 45.1657 51.6529ZM42.8348 51.6753C42.8348 52.0346 42.9692 52.349 43.2157 52.596C43.4848 52.8657 43.7986 53.0003 44.1795 53.0003C44.538 53.0003 44.8742 52.8657 45.1209 52.596C45.3898 52.3266 45.5241 52.0121 45.5241 51.6529C45.5241 51.2709 45.3898 50.9565 45.1209 50.7095C44.8742 50.4401 44.538 50.3051 44.1795 50.3051C43.821 50.3051 43.5071 50.4401 43.238 50.7095C42.9692 50.9565 42.8348 51.2934 42.8348 51.6753ZM39.607 52.9556L41.1311 51.0015V52.9556H41.4899V50.3502H41.2881L39.7638 52.3042V50.3502H39.4052V52.9556H39.607ZM40.481 50.2153C40.7499 50.2153 40.9743 50.1029 41.1758 49.856L40.9743 49.6538C40.8396 49.8335 40.6605 49.9459 40.481 49.9459C40.3017 49.9459 40.1226 49.8335 39.9655 49.6538L39.7864 49.856C39.9655 50.1029 40.2123 50.2153 40.481 50.2153ZM38.5535 51.6529C38.5535 51.9447 38.4638 52.1692 38.2847 52.3715C38.0829 52.5512 37.8588 52.6411 37.59 52.6411C37.2982 52.6411 37.0741 52.5512 36.895 52.3715C36.6933 52.1692 36.6035 51.9447 36.6035 51.6529C36.6035 51.3609 36.6933 51.1362 36.895 50.9341C37.0741 50.7543 37.3208 50.642 37.59 50.642C37.8588 50.642 38.0829 50.7543 38.2847 50.9341C38.4638 51.1362 38.5535 51.3609 38.5535 51.6529ZM36.245 51.6753C36.245 52.0346 36.3571 52.349 36.6259 52.596C36.8726 52.8657 37.1862 53.0003 37.5673 53.0003C37.9485 53.0003 38.2623 52.8657 38.5311 52.596C38.8002 52.3266 38.9346 52.0121 38.9346 51.6529C38.9346 51.2709 38.8002 50.9565 38.5311 50.7095C38.2623 50.4401 37.9485 50.3051 37.59 50.3051C37.2088 50.3051 36.895 50.4401 36.6259 50.7095C36.3794 50.9565 36.245 51.2934 36.245 51.6753ZM35.0347 52.9556H35.3933V50.6871H36.1553V50.3502H34.2727V50.6871H35.0347V52.9556ZM33.8242 51.6529C33.8242 51.9447 33.7345 52.1692 33.5327 52.3715C33.3536 52.5512 33.1295 52.6411 32.838 52.6411C32.569 52.6411 32.3225 52.5512 32.1431 52.3715C31.964 52.1692 31.8743 51.9447 31.8743 51.6529C31.8743 51.3609 31.964 51.1362 32.1431 50.9341C32.3449 50.7543 32.569 50.642 32.838 50.642C33.1069 50.642 33.3536 50.7543 33.5327 50.9341C33.7345 51.1362 33.8242 51.3609 33.8242 51.6529ZM31.4934 51.6753C31.4934 52.0346 31.6278 52.349 31.8743 52.596C32.1431 52.8657 32.4569 53.0003 32.838 53.0003C33.1966 53.0003 33.5327 52.8657 33.7795 52.596C34.0486 52.3266 34.183 52.0121 34.183 51.6529C34.183 51.2709 34.0486 50.9565 33.7795 50.7095C33.5327 50.4401 33.2189 50.3051 32.838 50.3051C32.4795 50.3051 32.1657 50.4401 31.8966 50.7095C31.6278 50.9565 31.4934 51.2934 31.4934 51.6753ZM29.7449 52.6187V51.6529H30.3054C30.6863 51.6529 30.8657 51.8775 30.8657 52.1468C30.8657 52.4165 30.6417 52.6187 30.2829 52.6187H29.7449ZM29.7449 51.316V50.6871H31.0001V50.3502H29.3864V52.9556H30.3278C30.619 52.9556 30.8434 52.8657 30.9778 52.7083C31.1346 52.5512 31.2243 52.3715 31.2243 52.1468C31.2243 51.9673 31.1569 51.7201 30.9555 51.5406C30.8208 51.4056 30.5967 51.316 30.3054 51.316H29.7449ZM28.2655 51.9447H27.5035L27.8847 50.9565L28.2655 51.9447ZM29.0276 52.9556L27.9967 50.3502H27.7949L26.7415 52.9556H27.1226L27.3915 52.2816H28.3776L28.6467 52.9556H29.0276ZM25.6206 53.0003C25.9121 53.0003 26.1585 52.9105 26.3382 52.7758C26.5173 52.6411 26.5847 52.4613 26.5847 52.2143C26.5847 51.8999 26.4053 51.6529 26.0691 51.5854V51.563C26.3606 51.4731 26.5173 51.2709 26.5173 51.0015C26.5173 50.7994 26.4502 50.642 26.2932 50.5073C26.1362 50.3726 25.9344 50.3051 25.688 50.3051C25.3741 50.3051 25.0379 50.4174 24.8362 50.5972L24.9933 50.8666C25.2174 50.7095 25.4415 50.6196 25.6656 50.6196C25.957 50.6196 26.1812 50.777 26.1585 51.024C26.1585 51.2709 25.9344 51.4507 25.5982 51.4507H25.2174V51.7652H25.6432C26.0018 51.7652 26.2259 51.9447 26.2259 52.2143C26.2259 52.4837 26.0018 52.6635 25.6432 52.6635C25.3965 52.6635 25.15 52.596 24.9036 52.4389L24.7465 52.731C25.0157 52.9105 25.3294 53.0003 25.6206 53.0003ZM22.5725 52.9779C23.0657 52.9779 23.4692 52.7533 23.7156 52.4165L23.4692 52.2143C23.245 52.4837 22.9536 52.6411 22.5951 52.6411C22.3033 52.6411 22.0792 52.5512 21.9001 52.3715C21.6984 52.192 21.6086 51.9447 21.6086 51.6529C21.6086 51.3609 21.6984 51.1362 21.9001 50.9341C22.0792 50.7319 22.326 50.642 22.5951 50.642C22.9536 50.642 23.2224 50.7994 23.4465 51.0914L23.7156 50.8666C23.6036 50.7095 23.4465 50.5748 23.245 50.4625C23.0433 50.3502 22.8192 50.3051 22.5951 50.3051C22.2139 50.3051 21.9001 50.4401 21.631 50.6871C21.3845 50.9341 21.2502 51.2709 21.2502 51.6529C21.2502 52.057 21.3845 52.3715 21.631 52.6187C21.9001 52.8657 22.2139 52.9779 22.5725 52.9779Z" fill="#BF8154"/>
<path fill-rule="evenodd" clip-rule="evenodd" d="M45.8453 19.2419H29.1763L37.5108 32.0408L45.8453 19.2419ZM35.1296 30.0231L27.9208 18.9814L18.2874 14.4042L35.1296 30.0231ZM56.7342 14.4042L47.0793 18.9814L39.8921 30.0231L56.7342 14.4042ZM50.1964 3.92668L43.7238 0.911294H31.2979L24.8034 3.92668L25.2366 5.46662L31.2979 8.3084H43.7238L49.7854 5.46662L50.1964 3.92668ZM51.2359 3.40568L51.2574 3.42757H51.279L58.5312 8.98081L58.6826 9.1978L59.895 12.6254L59.8732 12.6469L59.9165 12.6686L59.5268 13.0376L37.8142 33.1904L37.5108 33.4941L37.2078 33.1904L15.4949 13.0376L15.0836 12.6686L15.1485 12.6469L15.1269 12.6254L16.3175 9.1978L16.4689 8.98081L23.7427 3.42757H23.7645L23.786 3.40568L24.0891 3.27591L30.9948 0.0434656L31.1896 0H43.8321L44.0268 0.0434656L50.9326 3.27591L51.2359 3.40568ZM50.6945 5.61858L58.5961 11.6709L57.8818 9.63164L51.0194 4.38202L50.6945 5.61858ZM44.3732 9.0027L47.0578 18.0053L58.358 12.6254L50.11 6.33445L44.3732 9.0027ZM31.536 9.21946L28.8302 18.2655H46.1917L43.4857 9.21946H31.536ZM24.8901 6.33445L16.664 12.6254L27.9642 18.0053L30.6484 9.0027L24.8901 6.33445ZM24.0026 4.38202L17.1402 9.63164L16.4258 11.6709L24.3272 5.61858L24.0026 4.38202Z" fill="#BF8154"/>
</svg>
