<svg width="13" height="11" viewBox="0 0 13 11" fill="none" xmlns="http://www.w3.org/2000/svg">
<path d="M7.77148 0.947193L11.9902 5.16594C12.0769 5.25554 12.1253 5.37529 12.1253 5.49993C12.1253 5.62456 12.0769 5.74431 11.9902 5.83391L7.77148 10.0527C7.68041 10.1274 7.56479 10.1656 7.4471 10.1598C7.32942 10.154 7.2181 10.1047 7.13479 10.0214C7.05147 9.93808 7.00213 9.82675 6.99635 9.70907C6.99057 9.59139 7.02877 9.47577 7.10352 9.38469L10.5254 5.96868L1.34375 5.96868C1.21943 5.96868 1.1002 5.91929 1.01229 5.83138C0.924386 5.74347 0.875 5.62425 0.875 5.49993C0.875 5.37561 0.924386 5.25638 1.01229 5.16847C1.1002 5.08056 1.21943 5.03118 1.34375 5.03118L10.5254 5.03118L7.10352 1.61516C7.02877 1.52409 6.99057 1.40846 6.99635 1.29078C7.00213 1.1731 7.05147 1.06178 7.13479 0.978463C7.2181 0.895149 7.32942 0.845804 7.4471 0.840024C7.56479 0.834245 7.68041 0.872444 7.77148 0.947193Z" fill="#BF8154"/>
</svg>
