<svg width="17" height="18" viewBox="0 0 17 18" fill="none" xmlns="http://www.w3.org/2000/svg">
<path d="M15.2702 8.10639L12.3718 7.65983L10.6055 4.77431C10.5127 4.62327 10.3826 4.49873 10.2277 4.41272C10.0727 4.32671 9.89818 4.28215 9.72096 4.28335L2.31826 4.34233C2.10467 4.34413 1.89694 4.41243 1.72394 4.53772C1.55095 4.663 1.42127 4.83907 1.35294 5.04144L0.511719 7.53593V13.2712H2.27784C2.41513 13.7175 2.69189 14.108 3.06748 14.3854C3.44308 14.6628 3.89771 14.8125 4.36465 14.8125C4.83158 14.8125 5.28622 14.6628 5.66181 14.3854C6.0374 14.108 6.31416 13.7175 6.45146 13.2712H9.72683C9.86413 13.7175 10.1409 14.108 10.5165 14.3854C10.8921 14.6628 11.3467 14.8125 11.8136 14.8125C12.2806 14.8125 12.7352 14.6628 13.1108 14.3854C13.4864 14.108 13.7632 13.7175 13.9005 13.2712H15.9234V8.86798C15.9243 8.68372 15.8587 8.50532 15.7388 8.36546C15.6188 8.22559 15.4525 8.13362 15.2702 8.10639ZM7.19013 5.33093L9.72915 5.3107L11.1451 7.62397L7.19013 7.62259V5.33093ZM2.32648 5.36971L6.16268 5.33915V7.62223L1.56745 7.6206L2.32648 5.36971ZM4.36465 13.7849C4.13604 13.7849 3.91256 13.7171 3.72248 13.5901C3.53239 13.4631 3.38424 13.2826 3.29676 13.0714C3.20927 12.8601 3.18638 12.6277 3.23098 12.4035C3.27558 12.1793 3.38567 11.9733 3.54732 11.8117C3.70897 11.65 3.91493 11.5399 4.13915 11.4953C4.36337 11.4507 4.59577 11.4736 4.80698 11.5611C5.01819 11.6486 5.19872 11.7968 5.32573 11.9868C5.45274 12.1769 5.52053 12.4004 5.52053 12.629C5.52019 12.9355 5.3983 13.2293 5.1816 13.446C4.96491 13.6627 4.6711 13.7846 4.36465 13.7849ZM11.8136 13.7849C11.585 13.7849 11.3616 13.7171 11.1715 13.5901C10.9814 13.4631 10.8332 13.2826 10.7458 13.0714C10.6583 12.8601 10.6354 12.6277 10.68 12.4035C10.7246 12.1793 10.8347 11.9733 10.9963 11.8117C11.158 11.65 11.3639 11.5399 11.5881 11.4953C11.8124 11.4507 12.0448 11.4736 12.256 11.5611C12.4672 11.6486 12.6477 11.7968 12.7747 11.9868C12.9017 12.1769 12.9695 12.4004 12.9695 12.629C12.9692 12.9355 12.8473 13.2293 12.6306 13.446C12.4139 13.6627 12.1201 13.7846 11.8136 13.7849ZM14.896 12.2437H13.9622C13.872 11.7396 13.6073 11.2832 13.2145 10.9545C12.8217 10.6258 12.3258 10.4456 11.8136 10.4456C11.3015 10.4456 10.8056 10.6258 10.4128 10.9545C10.02 11.2832 9.75532 11.7396 9.66506 12.2437H6.51323C6.42297 11.7396 6.15829 11.2832 5.7655 10.9545C5.37271 10.6258 4.87683 10.4456 4.36465 10.4456C3.85246 10.4456 3.35659 10.6258 2.9638 10.9545C2.57101 11.2832 2.30633 11.7396 2.21606 12.2437H1.53917V8.64849L12.1516 8.66548L14.896 9.0883V12.2437Z" fill="#727272"/>
</svg>
