<svg width="17" height="16" viewBox="0 0 17 16" fill="none" xmlns="http://www.w3.org/2000/svg">
<path d="M11.8788 5.70399L11.8787 5.70389C11.1932 4.98669 10.3193 4.65713 9.53444 4.49435L11.8788 5.70399ZM11.8788 5.70399C12.5689 6.42543 13.0396 7.50993 13.0676 9.12569L13.0676 9.12576M11.8788 5.70399L13.0676 9.12576M13.0676 9.12576C13.0908 10.4557 12.4547 11.924 11.5851 12.9392L11.585 12.9393M13.0676 9.12576L11.585 12.9393M11.585 12.9393C11.1486 13.449 10.6408 13.8606 10.1076 14.0798L10.1069 14.0801M11.585 12.9393L10.1069 14.0801M10.1069 14.0801C9.56684 14.3031 8.99165 14.333 8.45754 14.0563L8.45735 14.0562M10.1069 14.0801L8.45735 14.0562M8.45735 14.0562C7.92782 13.7823 7.62004 13.4483 7.47199 13.0641L7.47182 13.0637M8.45735 14.0562L7.47182 13.0637M7.47182 13.0637C7.32648 12.6878 7.34917 12.3012 7.40401 11.9508M7.47182 13.0637L7.40401 11.9508M7.45181 10.2084L7.45213 10.2089C7.58509 10.4156 7.61325 10.6576 7.58196 10.9576L7.45181 10.2084ZM7.45181 10.2084C7.25258 9.89968 6.99825 9.72245 6.71691 9.53985L6.71633 9.53947M7.45181 10.2084L6.71633 9.53947M6.71633 9.53947L6.35482 9.30571L6.1856 9.18993C5.81166 8.92165 5.45197 8.56846 5.30005 7.93769L5.29996 7.93729M6.71633 9.53947L5.29996 7.93729M5.29996 7.93729C5.02278 6.79142 5.52406 5.79836 6.36564 5.16679C7.20106 4.54067 8.38386 4.25654 9.53437 4.49433L5.29996 7.93729ZM6.67191 5.5758L6.67219 5.57559C7.38862 5.03923 8.42094 4.78667 9.43102 4.99545C10.1599 5.14605 10.9225 5.44323 11.5088 6.05719L6.67191 5.5758ZM6.67191 5.5758C5.96029 6.10952 5.57692 6.90716 5.79702 7.8178L5.79702 7.81781M6.67191 5.5758L5.79702 7.81781M5.79702 7.81781C5.91186 8.29289 6.173 8.55724 6.52035 8.80008L6.52028 8.80018M5.79702 7.81781L6.52028 8.80018M6.52028 8.80018L6.52872 8.80578M6.52028 8.80018L6.52872 8.80578M6.52872 8.80578L6.71272 8.92778L6.71268 8.92784M6.52872 8.80578L6.71268 8.92784M6.71268 8.92784L6.71905 8.93189M6.71268 8.92784L6.71905 8.93189M6.71905 8.93189L7.03049 9.13026C7.3346 9.33048 7.65541 9.58084 7.88174 9.93193L7.88178 9.932M6.71905 8.93189L7.88178 9.932M7.88178 9.932C8.10574 10.2793 8.12723 10.6571 8.09047 11.01C8.07787 11.1266 8.06051 11.2428 8.03843 11.358C8.03836 11.3584 8.03829 11.3588 8.03821 11.3592L7.93331 11.8903L7.93327 11.8903L7.93224 11.8959M7.88178 9.932L7.93224 11.8959M7.93224 11.8959C7.92424 11.9396 7.91678 11.9834 7.90986 12.0273L7.90983 12.0275M7.93224 11.8959L7.90983 12.0275M7.90983 12.0275C7.859 12.3511 7.8532 12.6294 7.94767 12.8779L7.94766 12.8779M7.90983 12.0275L7.94766 12.8779M7.94766 12.8779L7.94872 12.8807M7.94766 12.8779L7.94872 12.8807M7.94872 12.8807C8.04166 13.12 8.24456 13.3702 8.69202 13.6021L8.69257 13.6024M7.94872 12.8807L8.69257 13.6024M8.69257 13.6024C9.0646 13.7945 9.47807 13.7869 9.91137 13.6078L8.69257 13.6024ZM11.1967 12.6072L11.1964 12.6075C10.7946 13.0759 10.3487 13.4271 9.91153 13.6077L11.1967 12.6072ZM11.1967 12.6072C12.0029 11.6658 12.5775 10.3149 12.5561 9.13486L11.1967 12.6072ZM7.40401 11.9508L7.42927 11.8049L7.5035 11.4305C7.50352 11.4304 7.50355 11.4302 7.50358 11.4301C7.5368 11.264 7.5664 11.1077 7.58194 10.9578C7.58193 10.9578 7.58193 10.9579 7.58192 10.9579L7.40401 11.9508ZM7.37124 1.78907L7.52852 1.40937L7.37124 1.78907C7.44271 1.81867 7.50764 1.86206 7.56233 1.91675C7.61703 1.97145 7.66042 2.03638 7.69002 2.10784C7.71962 2.17931 7.73485 2.2559 7.73485 2.33325C7.73485 2.4106 7.71962 2.4872 7.69002 2.55866C7.66042 2.63012 7.61703 2.69506 7.56233 2.74975C7.50764 2.80445 7.44271 2.84783 7.37124 2.87744C7.29978 2.90704 7.22318 2.92227 7.14583 2.92227C6.98961 2.92227 6.8398 2.86022 6.72933 2.74975C6.61887 2.63929 6.55681 2.48947 6.55681 2.33325C6.55681 2.17703 6.61887 2.02721 6.72933 1.91675C6.8398 1.80629 6.98961 1.74423 7.14583 1.74423C7.22318 1.74423 7.29978 1.75947 7.37124 1.78907ZM3.49363 4.31879L3.20302 4.60939L3.49363 4.31879C3.32066 4.14581 3.22348 3.91121 3.22348 3.66658C3.22348 3.42196 3.32066 3.18736 3.49363 3.01438C3.66661 2.84141 3.90121 2.74423 4.14583 2.74423C4.39046 2.74423 4.62506 2.84141 4.79804 3.01438C4.97101 3.18736 5.06819 3.42196 5.06819 3.66658C5.06819 3.91121 4.97101 4.14581 4.79804 4.31879C4.62506 4.49176 4.39046 4.58894 4.14583 4.58894C3.90121 4.58894 3.66661 4.49176 3.49363 4.31879ZM12.5561 9.13442C12.5299 7.61804 12.0919 6.66687 11.509 6.05731L12.5561 9.13442ZM13.1458 3.4109C13.2136 3.4109 13.2787 3.43784 13.3266 3.48579C13.3746 3.53374 13.4015 3.59877 13.4015 3.66658C13.4015 3.7344 13.3746 3.79943 13.3266 3.84738C13.2787 3.89533 13.2136 3.92227 13.1458 3.92227C13.078 3.92227 13.013 3.89533 12.965 3.84738C12.9171 3.79943 12.8901 3.7344 12.8901 3.66658C12.8901 3.59877 12.9171 3.53374 12.965 3.48579C13.013 3.43784 13.078 3.4109 13.1458 3.4109ZM10.4792 1.74423C10.5565 1.74423 10.6331 1.75947 10.7046 1.78907C10.776 1.81867 10.841 1.86206 10.8957 1.91675C10.9504 1.97145 10.9937 2.03638 11.0234 2.10784C11.053 2.17931 11.0682 2.2559 11.0682 2.33325C11.0682 2.4106 11.053 2.4872 11.0234 2.55866C10.9937 2.63012 10.9504 2.69506 10.8957 2.74975C10.841 2.80445 10.776 2.84784 10.7046 2.87744C10.6331 2.90704 10.5565 2.92227 10.4792 2.92227C10.3229 2.92227 10.1731 2.86022 10.0627 2.74975C9.9522 2.63929 9.89015 2.48947 9.89015 2.33325C9.89015 2.17703 9.9522 2.02721 10.0627 1.91675C10.1731 1.80629 10.3229 1.74423 10.4792 1.74423Z" stroke="#727272" stroke-width="0.821958"/>
</svg>
